<?xml version="1.0" encoding="utf-8"?>
<!-- Generator: Adobe Illustrator 27.5.0, SVG Export Plug-In . SVG Version: 6.00 Build 0)  -->
<svg version="1.1" xmlns="http://www.w3.org/2000/svg" xmlns:xlink="http://www.w3.org/1999/xlink" x="0px" y="0px"
	 viewBox="0 0 3710 3710" style="enable-background:new 0 0 3710 3710;" xml:space="preserve">
<g id="Illustration">
	<g>
		<linearGradient id="SVGID_1_" gradientUnits="userSpaceOnUse" x1="3410.1836" y1="3586.5657" x2="1373.712" y2="1388.4692">
			<stop  offset="0" style="stop-color:#DAE3FE"/>
			<stop  offset="1" style="stop-color:#E9EFFD"/>
		</linearGradient>
		<path style="fill:url(#SVGID_1_);" d="M3126.388,2333.953c-279.826,654.06-1018.477,934.995-1597.221,887.095
			c-158.021-13.078-475.962-39.393-724.213-274.156c-476.749-450.847-403.325-1393.243,53.06-1948.073
			c58.773-71.451,465.591-550.163,1099.542-543.755c464.144,4.692,789.922,266.88,829.535,299.544
			c50.042,41.263,160.415,139.317,259.888,294.874C3280.706,1414.985,3301.251,1925.23,3126.388,2333.953z"/>
		<g>
			<path style="fill:#91B3FA;" d="M501.451,535.104c-2.906-12.371,14.497-20.595,25.153-11.953
				c108.213,87.749,368.216,350.52,303.418,809.731c-81.298,576.148,57.691,786.38,230.699,914.617
				c0,0-237.597-60.305-387.082-273.63C306.62,1450.106,553.124,755.07,501.451,535.104z"/>
			<path style="fill:#FFFFFF;" d="M583.802,715.058c13.537,64.139,25.603,128.475,34.927,193.101
				c9.715,64.571,17.16,129.368,22.254,194.271c4.806,64.915,8.2,129.897,8.393,194.908c0.531,65.007-2.172,129.96-5.149,195.166
				c-2.555,65.183-5.557,130.836-0.785,196.954c4.692,65.983,18.581,132.543,46.143,194.938
				c6.89,15.551,14.135,31.053,22.365,46.032c7.913,15.118,16.602,29.937,25.596,44.615c18.16,29.287,38.603,57.583,61.383,84.44
				c45.727,53.622,100.875,101.19,161.628,141.448c6.394,4.237,15.555,3.196,20.463-2.326c4.818-5.421,3.742-13.147-2.353-17.437
				l-0.043-0.03c-14.456-10.153-28.759-20.436-42.482-31.234c-6.963-5.306-13.639-10.867-20.433-16.317
				c-6.547-5.665-13.351-11.114-19.688-16.948c-25.797-22.961-49.697-47.458-71.379-73.36
				c-43.613-51.564-78.527-109.022-104.979-168.589c-12.84-29.922-23.105-60.608-30.599-91.87
				c-7.467-31.27-12.164-63.084-14.761-95.154c-5.202-64.175-2.852-129.178-0.841-194.373c1.914-65.212,3.319-130.754,1.598-196.244
				c-0.758-32.743-2.197-65.47-4.315-98.159c-0.95-16.349-2.266-32.679-3.547-49.008c-1.463-16.319-3.031-32.629-4.752-48.924
				c-7.025-65.173-16.349-130.13-28.036-194.741c-12.046-64.562-26.072-128.828-42.942-192.517c-0.483-1.821-2.582-2.959-4.69-2.542
				C584.734,711.56,583.433,713.291,583.802,715.058z"/>
		</g>
		<g>
			<g>
				<path style="fill:#BDD0FB;" d="M756.011,1880.087c-13.268,14.078-36.602,10.029-44.583-7.592
					c-44.042-97.23-143.703-383.395,20.892-713.071c138.993-278.397,187.905-442.564,204.945-518.628
					c3.604-16.084,25.646-18.22,32.299-3.139C1042.97,804.038,1236.793,1369.981,756.011,1880.087z"/>
				<path style="fill:#FFFFFF;" d="M731.911,1869.827c-0.472,0.085-0.957,0.125-1.455,0.117c-4.17-0.064-7.5-3.497-7.436-7.667
					c0.073-4.728,9.274-477.33,185.049-873.152c1.693-3.808,6.154-5.527,9.969-3.838c3.812,1.694,5.53,6.156,3.838,9.97
					c-174.496,392.941-183.681,862.555-183.753,867.252C738.067,1866.182,735.397,1869.202,731.911,1869.827z"/>
			</g>
		</g>
		<g>
			
				<linearGradient id="SVGID_00000132071613948789736960000002125541535701328009_" gradientUnits="userSpaceOnUse" x1="998.507" y1="1073.5728" x2="3575.5747" y2="3630.6133">
				<stop  offset="0" style="stop-color:#4F52FF"/>
				<stop  offset="1" style="stop-color:#4042E2"/>
			</linearGradient>
			<path style="fill:url(#SVGID_00000132071613948789736960000002125541535701328009_);" d="M3156.959,2011.661
				c-28.508,649.381-619.845,1150.864-1320.788,1120.093c-700.943-30.771-1246.06-582.144-1217.552-1231.526
				c28.508-649.381,619.845-1150.864,1320.788-1120.092S3185.467,1362.279,3156.959,2011.661z"/>
			<path style="fill:#7D97F4;" d="M929.431,1176.198c-27.885,44.766-49.386,95.163-45.348,147.749
				c4.675,60.889,35.493,117.91,37.073,178.958c2.679,103.534-77.244,190.197-102.175,290.72
				c-27.867,112.358,77.202,240.379,119.063,303.092c41.861,62.713,23.871-50.884,49.256-95.18
				c25.385-44.296,80.12,186.389,165.619,237.018c45.872,27.164,99.69,45.247,132.682,87.123
				c48.119,61.077,34.786,147.989,27.562,225.407c-7.224,77.419,3.597,171.77,73.321,206.186
				c41.054,20.265,93.238,13.406,130.286,40.306c65.062,47.24,33.982,150.23,59.764,226.388
				c28.037,82.82,83.629,83.91,169.641,101.469c86.012,17.559-10.837-171.404,29.457-237.446
				c21.179-34.712,53.51-62.336,70.214-99.409c23.165-51.415,16.64-120.111,61.579-154.18
				c33.686-25.538,80.558-18.629,122.829-19.002s93.681-18.716,98.476-60.715c4.255-37.265-33.051-66.979-69.55-75.615
				c-36.499-8.635-75.392-4.518-111.238-15.555c-102.531-31.571-150.354-175.048-257.425-181.761
				c-91.523-5.739-168.181,96.993-258.112,79.05c-50.135-10.003-84.452-54.405-121.666-89.457
				c-47.806-45.029-107.138-78.823-145.093-132.418c-37.955-53.595-44.412-139.261,9.583-176.645
				c40.11-27.77,97.1-16.497,136.725,11.96c39.625,28.457,66.614,70.68,95.715,109.835c8.988,12.093,19.159,24.625,33.539,29.126
				c38.694,12.113,66.928-42.325,57.67-81.799c-9.259-39.474-37.144-74.194-38.453-114.718
				c-2.308-71.42,74.602-116.738,142.074-140.272c67.471-23.534,146.996-51.591,166.833-120.241
				c7.007-24.249,5.169-50.932,15.862-73.796c35.439-75.771,222.445-113.598,177.744-157.535
				c-44.7-43.937-186.578-53.487-214.206-141.973c-9.891-31.678-20.074-73.552-53.119-76.616
				c-53.826-4.991-84.538,61.635-129.686,73.071c-21.433,5.429-23.495,41.834-22.659,86.599
				c0.607,32.493-25.238,59.328-57.732,59.943s-59.338-25.224-59.957-57.717c-0.23-12.061,1.882-24.252,6.842-36.41
				c8.693-21.306,25.2-38.344,41.843-54.235c69.44-66.304,276.647-139.154,233.257-167.378
				c-43.39-28.224-251.638-106.112-282.701-63.128c-31.063,42.984,20.313,6.587,32.843,57.566
				c12.53,50.978-154.051,44.143-231.077,66.215c-12.718,3.644-26.823,7.193-38.73,1.428c-13.309-6.444-18.913-21.936-26.136-34.839
				c-38.684-69.111-167.349-24.252-167.349-24.252S954.346,1136.2,929.431,1176.198z"/>
			<path style="fill:#7D97F4;" d="M1511.394,862.572c-18.701,34.864,36.915,34.299,42.448,73.473
				c50.067,5.456,70.629-73.481,120.143-82.694c27.943-5.199,55.037,14.822,70.222,38.848s22.268,52.238,35.138,77.58
				c28.837,56.781,88.381,96.744,151.855,101.916c13.81,1.125,29.028,0.242,39.423-8.918c30.176-26.591-12.995-76.547-1.78-115.172
				c12.816-44.138,76.46-37.442,119.476-53.629c11.865-4.465,103.119-28.814,104.587-41.406
				c2.602-22.323-39.733-36.534-87.092-48.713c-80.239-20.633-221.421-19.775-290.43-13.531
				C1723.572,798.631,1570.608,791.92,1511.394,862.572L1511.394,862.572z"/>
			<g>
				<path style="fill:#7D97F4;" d="M3042.484,2361.965c20.804-130.232,19.073-264.033-5.095-393.682
					c-6.447-34.586-21.539-75.817-56.366-80.795c-40.285-5.758-89.602,40.517-114.82,8.579
					c-11.133-14.098-6.689-34.625-0.385-51.444c16.631-44.36,42.666-85.167,75.885-118.943
					c20.637-20.983,44.249-39.583,60.139-64.354c33.988-52.981,10.13-130.403-37.974-171
					c-48.103-40.597-110.159,32.205-160.725,3.306c-50.566-28.899-52.14-99.009-61.643-156.469
					c-7.04-42.563-38.4-157.877-73.042-101.717c-34.642,56.159,46.209,279.717,137.205,386.879
					c10.976,12.926,23.096,27.403,22.169,44.335c-2.214,40.433-61.134,38.635-100.772,46.913
					c-49.065,10.249-124.268-16.029-82.766,69.468c21.888,45.093,126.441,106.811,98.348,136.987s-114.461,117.586-154.987,188.275
					c-40.525,70.689-60.165,158.715-29.605,234.249s122.451,127.691,197.463,95.871c35.108-14.894,73.375-45.857,106.01-26.125
					c29.554,17.868,25.193,60.758,23.731,95.263c-1.462,34.504,18.428,80.307,51.998,72.202
					c11.046-2.667,19.735-11.042,27.194-19.615C3011.677,2505.863,3031.134,2433.016,3042.484,2361.965z"/>
			</g>
			<g style="opacity:0.21;">
				<ellipse style="fill:#BDD0FB;" cx="1835.525" cy="1890.283" rx="996.864" ry="941.719"/>
			</g>
			<g style="opacity:0.68;">
				<path style="fill:#FFFFFF;" d="M2242.393,1976.145c-0.303,207.514-14.487,415.447-50.901,620.023
					c-9.222,51.101-19.918,101.957-32.667,152.328c-12.789,50.35-27.56,100.261-45.649,149.052
					c-9.072,24.379-18.986,48.473-30.144,72.021c-11.169,23.533-23.566,46.56-37.972,68.396
					c-14.461,21.737-30.862,42.555-51.07,59.657c-10.102,8.495-21.186,16.024-33.365,21.537c-12.153,5.475-25.421,8.94-38.884,9.19
					c-13.451,0.398-26.914-2.251-39.305-7.247c-12.44-4.952-23.791-12.138-34.135-20.353
					c-20.691-16.565-37.453-37.152-52.172-58.716c-14.686-21.662-27.227-44.617-38.581-68.064
					c-11.305-23.481-21.362-47.518-30.526-71.863c-18.318-48.708-33.235-98.579-46.138-148.899
					c-12.877-50.336-23.683-101.17-32.981-152.256c-18.559-102.193-31.194-205.37-39.696-308.831
					c-8.443-103.476-12.639-207.281-13.092-311.098c-0.222-51.903,1.082-103.799,2.898-155.664
					c1.894-51.865,4.701-103.696,8.466-155.458c7.579-103.512,18.943-206.797,35.892-309.235
					c8.502-51.206,18.425-102.196,30.373-152.735c11.974-50.521,25.9-100.64,43.184-149.67c8.688-24.492,18.187-48.72,29.023-72.378
					c10.82-23.652,22.93-46.786,37.163-68.651c14.262-21.771,30.663-42.544,51.067-59.163c10.2-8.237,21.434-15.401,33.737-20.256
					c12.254-4.917,25.542-7.415,38.77-6.92c13.232,0.375,26.278,3.697,38.32,9.01c12.059,5.341,23.142,12.605,33.323,20.841
					c20.361,16.578,37.225,36.857,52.182,58.155c14.911,21.39,27.912,44.02,39.651,67.226
					c11.765,23.205,22.249,47.024,31.924,71.141c19.273,48.283,35.178,97.82,49.026,147.867
					c13.796,50.072,25.473,100.701,35.572,151.628C2225.64,1560.645,2241.848,1768.603,2242.393,1976.145z M2229.76,1976.145
					c0.15-103.468-3.821-206.961-12.459-310.069c-8.544-103.101-21.486-205.899-40.7-307.559
					c-9.604-50.822-20.782-101.354-34.073-151.328c-13.336-49.949-28.727-99.388-47.451-147.551
					c-9.402-24.057-19.602-47.81-31.067-70.933c-11.439-23.127-24.123-45.66-38.663-66.924
					c-14.582-21.173-31.031-41.286-50.78-57.657c-9.874-8.136-20.593-15.288-32.202-20.555c-11.596-5.206-24.091-8.604-36.798-8.94
					c-12.694-0.41-25.385,2.128-37.13,6.95c-11.791,4.773-22.608,11.798-32.466,19.905c-19.722,16.352-35.686,36.908-49.564,58.519
					c-13.851,21.705-25.646,44.718-36.162,68.271c-10.536,23.558-19.755,47.708-28.172,72.127
					c-16.74,48.887-30.154,98.897-41.629,149.313c-11.442,50.435-20.873,101.327-28.889,152.432
					c-15.97,102.237-26.379,205.311-33.003,308.579c-6.673,103.282-9.112,206.801-8.939,310.28
					c-0.205,103.464,3.325,206.955,11.084,310.134c7.821,103.161,19.765,206.062,37.603,307.954
					c8.939,50.935,19.377,101.612,31.872,151.767c12.518,50.139,27.035,99.809,44.902,148.242
					c8.939,24.208,18.751,48.087,29.783,71.371c11.074,23.248,23.312,45.968,37.583,67.306
					c14.295,21.245,30.562,41.407,50.31,57.415c9.871,7.943,20.619,14.823,32.257,19.535c11.602,4.73,24.068,7.345,36.55,6.929
					c12.482-0.311,24.782-3.599,36.185-8.82c11.416-5.257,21.936-12.48,31.589-20.708c19.322-16.557,35.24-36.971,49.284-58.397
					c27.902-43.181,48.602-90.817,66.365-139.2c17.63-48.521,31.99-98.233,44.381-148.402
					c12.355-50.191,22.669-100.89,31.523-151.839c17.701-101.915,29.499-204.827,37.333-307.99
					C2226.129,2183.13,2229.787,2079.631,2229.76,1976.145z"/>
				<path style="fill:#FFFFFF;" d="M2765.855,1976.145c-0.681,133.542-17.806,267.147-53.515,395.934
					c-36.299,128.5-91.007,252.154-165.363,363.185c-37.18,55.456-79.311,107.661-126.394,155.032
					c-47.067,47.352-99.112,89.879-155.645,125.486c-56.586,35.466-117.703,63.86-181.679,83.128
					c-63.94,19.317-130.693,29.401-197.509,29.488c-66.819-0.036-133.585-10.072-197.555-29.344
					c-64.005-19.226-125.165-47.58-181.796-83.019c-56.583-35.576-108.689-78.072-155.821-125.408
					c-47.145-47.355-89.345-99.55-126.593-155.006c-74.479-111.043-129.282-234.742-165.721-363.294
					c-35.976-128.813-53.058-262.557-53.613-396.182c0.329-66.833,4.779-133.637,13.61-199.878
					c8.87-66.229,22.226-131.875,40.218-196.244c36.511-128.509,91.385-252.14,165.904-363.088
					c37.261-55.414,79.464-107.562,126.609-154.864c47.129-47.276,99.206-89.74,155.779-125.224
					c56.622-35.362,117.765-63.545,181.679-82.765c63.875-19.294,130.553-29.366,197.3-29.45
					c66.744,0.13,133.409,10.248,197.258,29.583c63.885,19.262,124.989,47.491,181.558,82.884
					c56.524,35.518,108.539,78.01,155.606,125.303c47.077,47.319,89.211,99.477,126.404,154.89
					c74.398,110.936,129.178,234.522,165.549,362.979C2747.899,1709.018,2765.099,1842.604,2765.855,1976.145z M2751.368,1976.145
					c-0.245-132.293-16.782-264.719-51.738-392.407c-35.191-127.483-88.181-250.515-161.031-361.138
					c-36.407-55.254-77.746-107.329-124.037-154.656c-46.304-47.258-97.455-89.985-153.36-125.518
					c-55.969-35.341-116.412-63.762-179.771-83.002c-63.327-19.26-129.445-29.379-195.68-29.591
					c-66.235,0.258-132.34,10.424-195.641,29.723c-63.334,19.282-123.734,47.75-179.654,83.122
					c-55.855,35.566-106.942,78.322-153.184,125.598c-46.226,47.345-87.496,99.428-123.835,154.683
					c-72.726,110.612-125.621,233.598-160.672,361.029c-17.441,63.792-30.102,128.84-38.663,194.381
					c-8.577,65.55-12.815,131.653-12.981,197.777c0.199,66.124,4.473,132.223,13.082,197.764
					c8.596,65.532,21.3,130.565,38.777,194.335c35.122,127.388,88.09,250.306,160.858,360.824
					c36.348,55.212,77.625,107.248,123.845,154.542c46.242,47.215,97.299,89.939,153.145,125.412
					c55.908,35.297,116.295,63.591,179.537,82.867c63.207,19.322,129.223,29.525,195.387,29.832
					c66.16-0.256,132.193-10.409,195.426-29.688c63.272-19.232,123.698-47.489,179.654-82.756
					c55.895-35.444,107.014-78.137,153.321-125.336c46.284-47.275,87.63-99.304,124.047-154.516
					c72.892-110.529,125.954-233.492,161.216-360.932C2734.439,2240.845,2751.048,2108.438,2751.368,1976.145z"/>
				<path style="fill:#FFFFFF;" d="M856.912,1520.116l264.777-1.753l264.774-1.003l529.555-0.804l529.552,0.886l264.777,1.09
					l264.774,1.898c0.355,0.002,0.639,0.29,0.636,0.644c-0.003,0.35-0.287,0.632-0.636,0.635l-264.774,1.898l-264.777,1.089
					l-529.552,0.886l-529.555-0.804l-264.774-1.003l-264.777-1.752c-0.525-0.004-0.949-0.433-0.945-0.959
					C855.97,1520.541,856.394,1520.12,856.912,1520.116z"/>
				<path style="fill:#FFFFFF;" d="M1164.085,1076.638l187.984-1.759l187.984-0.997c62.659-0.425,125.321-0.379,187.984-0.51
					l187.983-0.294l375.967,0.886l187.983,1.088c62.659,0.646,125.321,1.024,187.98,1.899c0.355,0.006,0.635,0.296,0.632,0.649
					c-0.007,0.346-0.287,0.625-0.632,0.63c-62.659,0.875-125.321,1.253-187.98,1.899l-187.983,1.089l-375.967,0.886l-187.983-0.294
					c-62.662-0.131-125.325-0.086-187.984-0.51l-187.984-0.997l-187.984-1.76c-0.528-0.005-0.949-0.435-0.945-0.961
					C1163.146,1077.062,1163.567,1076.644,1164.085,1076.638z"/>
				<path style="fill:#FFFFFF;" d="M764.901,1963.594l287.78-1.753l287.779-1.003l575.559-0.804l575.559,0.885l287.78,1.09
					l287.78,1.898c0.352,0.003,0.636,0.29,0.632,0.643c0,0.35-0.283,0.633-0.632,0.636l-287.78,1.898l-287.78,1.09l-575.559,0.885
					l-575.559-0.804l-287.779-1.002l-287.78-1.753c-0.528-0.003-0.952-0.432-0.949-0.958
					C763.956,1964.019,764.379,1963.597,764.901,1963.594z"/>
				<path style="fill:#FFFFFF;" d="M856.912,2407.072l264.777-1.753l264.774-1.002l529.555-0.804l529.552,0.885l264.777,1.09
					l264.774,1.898c0.355,0.002,0.639,0.291,0.636,0.644c-0.003,0.35-0.287,0.632-0.636,0.635l-264.774,1.898l-264.777,1.09
					l-529.552,0.885l-529.555-0.804l-264.774-1.002l-264.777-1.753c-0.525-0.003-0.949-0.433-0.945-0.958
					C855.97,2407.496,856.394,2407.075,856.912,2407.072z"/>
				<path style="fill:#FFFFFF;" d="M2705.84,2854.839H1201.972c-1.845,0-3.338-1.495-3.338-3.338s1.493-3.338,3.338-3.338H2705.84
					c1.845,0,3.338,1.495,3.338,3.338S2707.685,2854.839,2705.84,2854.839z"/>
			</g>
		</g>
		<g>
			
				<linearGradient id="SVGID_00000062172762583057399610000013701634384390079656_" gradientUnits="userSpaceOnUse" x1="1691.7512" y1="3123.6152" x2="1591.2404" y2="148.4413">
				<stop  offset="0" style="stop-color:#09005D"/>
				<stop  offset="1" style="stop-color:#1A0F91"/>
			</linearGradient>
			<path style="fill:url(#SVGID_00000062172762583057399610000013701634384390079656_);" d="M984.614,1556.186
				c0-70.973,57.535-128.508,128.509-128.508h1092.843c60.291,0,110.006,47.248,113.072,107.462l80.667,1584.418
				c2.399,47.119-34.693,86.864-81.865,87.722l-1252.536,22.765c-44.324,0.805-80.69-34.905-80.69-79.237V1556.186z"/>
			
				<linearGradient id="SVGID_00000142895724489585365330000011205810849644119943_" gradientUnits="userSpaceOnUse" x1="743.9818" y1="2852.8953" x2="1883.1288" y2="3576.5898">
				<stop  offset="0" style="stop-color:#A737D5"/>
				<stop  offset="1" style="stop-color:#EF497A"/>
			</linearGradient>
			<path style="fill:url(#SVGID_00000142895724489585365330000011205810849644119943_);" d="M1248.365,3203.107
				c-0.013,0-0.026,0-0.039,0l-140.151-1.812c-46.864-0.608-84.99-39.23-84.99-86.095v-211.603c0-1.654,1.34-2.992,2.992-2.992
				c1.653,0,2.992,1.338,2.992,2.992V3115.2c0,43.607,35.475,79.544,79.083,80.111l140.15,1.812c1.652,0.02,2.974,1.379,2.954,3.03
				C1251.333,3201.793,1249.998,3203.107,1248.365,3203.107z"/>
			
				<linearGradient id="SVGID_00000156553426830409255950000017712784582493571770_" gradientUnits="userSpaceOnUse" x1="839.5987" y1="2702.3865" x2="1978.7461" y2="3426.0815">
				<stop  offset="0" style="stop-color:#A737D5"/>
				<stop  offset="1" style="stop-color:#EF497A"/>
			</linearGradient>
			<path style="fill:url(#SVGID_00000156553426830409255950000017712784582493571770_);" d="M1026.176,2841.045
				c-1.652,0-2.992-1.338-2.992-2.992v-34.269c0-1.654,1.34-2.992,2.992-2.992c1.653,0,2.992,1.338,2.992,2.992v34.269
				C1029.168,2839.707,1027.829,2841.045,1026.176,2841.045z"/>
			<g>
				
					<linearGradient id="SVGID_00000183251353361738326400000004783116493901145272_" gradientUnits="userSpaceOnUse" x1="3003.189" y1="385.0333" x2="574.801" y2="3899.9429">
					<stop  offset="0" style="stop-color:#FF928E"/>
					<stop  offset="1" style="stop-color:#FE7062"/>
				</linearGradient>
				<path style="fill:url(#SVGID_00000183251353361738326400000004783116493901145272_);" d="M1074.145,1452.065
					c-0.134-22.707,19.836-40.282,42.338-37.23c149.238,20.238,662.427,82.83,1086.725,50.26
					c19.35-1.485,36.142,13.175,37.172,32.555l84.584,1591.48c1.16,21.822-15.503,40.482-37.318,41.773
					c-178.452,10.56-913.373,51.385-1175.509,23.929c-15.954-1.671-28.064-15.103-28.159-31.145L1074.145,1452.065z"/>
				<path style="opacity:0.6;fill:#FFFFFF;" d="M1091.724,1491.946c-0.129-21.852,19.089-38.765,40.744-35.828
					c143.618,19.476,637.482,79.712,1045.804,48.367c18.621-1.429,34.781,12.679,35.772,31.329l81.399,1531.552
					c1.116,21-14.92,38.958-35.913,40.201c-171.732,10.163-878.98,49.45-1131.244,23.027c-15.353-1.608-27.008-14.534-27.098-29.972
					L1091.724,1491.946z"/>
				<g>
					<path style="fill:#FFFFFF;" d="M1352.367,2510.641c-0.07,0-0.142,0-0.213,0l-77.932-0.748
						c-11.134-0.108-20.325-7.77-21.38-17.818l-6.85-65.387c-0.402-3.84,0.79-7.632,3.356-10.686
						c2.872-3.416,7.219-5.561,11.925-5.885l0,0c6.565-0.447,15.812-1.236,25.6-2.069c20.612-1.756,46.265-3.939,60.698-4.12
						c10.472-0.052,19.355,6.145,21.823,15.264c4.06,15.01,3.703,43.423,2.931,73.692
						C1372.074,2502.717,1363.141,2510.641,1352.367,2510.641z M1261.681,2416.09c-3.094,0.21-5.92,1.583-7.752,3.764
						c-1.512,1.797-2.216,4.003-1.985,6.209l6.85,65.387c0.736,7.024,7.394,12.38,15.486,12.459l77.931,0.748
						c0.051,0,0.104,0,0.156,0c7.552,0,13.805-5.321,13.974-11.925c0.76-29.81,1.124-57.744-2.726-71.979
						c-1.725-6.379-8.363-10.817-15.97-10.841c-14.218,0.178-39.75,2.352-60.265,4.1
						C1277.566,2414.848,1268.295,2415.637,1261.681,2416.09L1261.681,2416.09z"/>
					<path style="opacity:0.6;fill:#FFFFFF;" d="M1270.064,2422.838c16.372-1.119,51.954-4.732,68.831-4.942
						c7.151-0.089,13.423,4.231,15.099,10.432c3.257,12.043,2.826,36.048,2.26,58.204c-0.169,6.635-6.264,11.932-13.705,11.861
						l-62.278-0.598c-7.659-0.073-14.017-5.295-14.73-12.096l-5.475-52.253C1259.501,2428.039,1263.996,2423.253,1270.064,2422.838z
						"/>
					<g style="opacity:0.6;">
						<path style="fill:#FFFFFF;" d="M1420.817,2467.224c2.256,8.555,10.028,14.49,18.876,14.415l721.061-6.148
							c8.157-0.07,14.682-6.796,14.504-14.952c-0.174-7.929-6.632-14.276-14.562-14.312l-721.079-3.289
							C1426.887,2442.88,1417.57,2454.916,1420.817,2467.224z"/>
					</g>
					
						<linearGradient id="SVGID_00000151511359459050862870000009738638439625790866_" gradientUnits="userSpaceOnUse" x1="1502.2113" y1="2109.9441" x2="1104.2642" y2="2789.1465">
						<stop  offset="0" style="stop-color:#E1473D"/>
						<stop  offset="1" style="stop-color:#E9605A"/>
					</linearGradient>
					<path style="fill:url(#SVGID_00000151511359459050862870000009738638439625790866_);" d="M1273.382,2433.092L1273.382,2433.092
						c5.786-3.395,13.231-1.369,16.499,4.489l15.372,27.554c1.539,2.759,5.564,2.584,6.858-0.297l38.125-84.879
						c1.902-4.234,8.207-2.803,8.138,1.838c-0.389,25.963-7.278,75.314-48.762,116.624c0,0-22.861-8.886-41.271-49.313
						C1265.682,2443.269,1267.848,2436.339,1273.382,2433.092z"/>
					<path style="fill:#FFFFFF;" d="M1352.367,2677.669c-0.07,0-0.142,0-0.213,0l-77.932-0.748
						c-11.134-0.108-20.325-7.77-21.38-17.818l-6.85-65.388c-0.402-3.839,0.79-7.632,3.356-10.685
						c2.872-3.416,7.219-5.561,11.925-5.885l0,0c6.565-0.447,15.812-1.236,25.6-2.069c20.612-1.756,46.265-3.939,60.698-4.12
						c0.105,0,0.21-0.003,0.314-0.003c10.249,0,19.066,6.241,21.509,15.267c4.06,15.01,3.703,43.423,2.931,73.692
						C1372.074,2669.745,1363.141,2677.669,1352.367,2677.669z M1261.681,2583.117c-3.094,0.211-5.92,1.584-7.752,3.764
						c-1.512,1.797-2.216,4.003-1.985,6.209l6.85,65.387c0.736,7.024,7.394,12.38,15.486,12.459l77.931,0.748
						c0.051,0,0.104,0,0.156,0c7.552,0,13.805-5.321,13.974-11.924c0.76-29.81,1.124-57.744-2.726-71.979
						c-1.727-6.375-8.458-10.96-15.971-10.84c-14.217,0.178-39.749,2.352-60.264,4.1
						C1277.566,2581.876,1268.295,2582.665,1261.681,2583.117L1261.681,2583.117z"/>
					<path style="opacity:0.6;fill:#FFFFFF;" d="M1270.064,2589.866c16.372-1.119,51.954-4.732,68.831-4.942
						c7.151-0.089,13.423,4.231,15.099,10.432c3.257,12.043,2.826,36.048,2.26,58.204c-0.169,6.635-6.264,11.932-13.705,11.861
						l-62.278-0.598c-7.659-0.073-14.017-5.295-14.73-12.096l-5.475-52.253C1259.501,2595.068,1263.996,2590.281,1270.064,2589.866z
						"/>
					<g style="opacity:0.6;">
						<path style="fill:#FFFFFF;" d="M1420.817,2634.252c2.256,8.555,10.028,14.49,18.876,14.415l721.061-6.148
							c8.157-0.069,14.682-6.796,14.504-14.951c-0.174-7.929-6.632-14.276-14.562-14.312l-721.079-3.289
							C1426.887,2609.908,1417.57,2621.944,1420.817,2634.252z"/>
					</g>
					
						<linearGradient id="SVGID_00000108303769095568169270000003946207590132238270_" gradientUnits="userSpaceOnUse" x1="1575.0647" y1="2152.6287" x2="1177.1168" y2="2831.8323">
						<stop  offset="0" style="stop-color:#E1473D"/>
						<stop  offset="1" style="stop-color:#E9605A"/>
					</linearGradient>
					<path style="fill:url(#SVGID_00000108303769095568169270000003946207590132238270_);" d="M1273.382,2600.12L1273.382,2600.12
						c5.786-3.395,13.231-1.369,16.499,4.489l15.372,27.554c1.539,2.759,5.564,2.584,6.858-0.297l38.125-84.879
						c1.902-4.234,8.207-2.803,8.138,1.838c-0.389,25.963-7.278,75.314-48.762,116.624c0,0-22.861-8.886-41.271-49.313
						C1265.682,2610.297,1267.848,2603.367,1273.382,2600.12z"/>
					<path style="fill:#FFFFFF;" d="M1352.367,2844.697c-0.07,0-0.142,0-0.213,0l-77.932-0.748
						c-11.134-0.105-20.325-7.764-21.38-17.815l-6.85-65.388c-0.402-3.839,0.79-7.635,3.357-10.688
						c2.872-3.416,7.217-5.56,11.923-5.885l0,0c6.565-0.447,15.812-1.236,25.6-2.069c20.612-1.756,46.265-3.939,60.698-4.12
						c0.105,0,0.21-0.003,0.314-0.003c10.249,0,19.066,6.241,21.509,15.267c4.06,15.01,3.703,43.423,2.931,73.692
						C1372.074,2836.773,1363.141,2844.697,1352.367,2844.697z M1261.681,2750.146c-3.094,0.21-5.92,1.583-7.752,3.763
						c-1.512,1.797-2.216,4.003-1.985,6.212l6.85,65.387c0.736,7.024,7.394,12.38,15.485,12.456l77.933,0.748
						c0.051,0,0.104,0,0.156,0c7.552,0,13.805-5.321,13.974-11.925c0.76-29.81,1.124-57.744-2.726-71.979
						c-1.727-6.376-8.458-10.984-15.971-10.841c-14.217,0.178-39.749,2.352-60.264,4.1
						C1277.566,2748.904,1268.295,2749.692,1261.681,2750.146L1261.681,2750.146z"/>
					<path style="opacity:0.6;fill:#FFFFFF;" d="M1270.064,2756.894c16.372-1.119,51.954-4.732,68.831-4.942
						c7.151-0.089,13.423,4.231,15.099,10.432c3.257,12.043,2.826,36.048,2.26,58.204c-0.169,6.635-6.264,11.932-13.705,11.86
						l-62.278-0.598c-7.659-0.073-14.017-5.295-14.73-12.097l-5.475-52.253C1259.501,2762.096,1263.996,2757.309,1270.064,2756.894z
						"/>
					<g style="opacity:0.6;">
						<path style="fill:#FFFFFF;" d="M1420.817,2801.28c2.256,8.555,10.028,14.491,18.876,14.415l721.061-6.148
							c8.157-0.07,14.682-6.796,14.504-14.952c-0.174-7.929-6.632-14.276-14.562-14.312l-721.079-3.289
							C1426.887,2776.936,1417.57,2788.972,1420.817,2801.28z"/>
					</g>
					
						<linearGradient id="SVGID_00000054985457824005030330000016843725535710224286_" gradientUnits="userSpaceOnUse" x1="1636.3209" y1="2320.0608" x2="1112.7057" y2="3050.1296">
						<stop  offset="0" style="stop-color:#E1473D"/>
						<stop  offset="1" style="stop-color:#E9605A"/>
					</linearGradient>
					<path style="fill:url(#SVGID_00000054985457824005030330000016843725535710224286_);" d="M1273.382,2767.148L1273.382,2767.148
						c5.786-3.395,13.231-1.369,16.499,4.489l15.372,27.555c1.539,2.758,5.564,2.584,6.858-0.297l38.125-84.88
						c1.902-4.234,8.207-2.802,8.138,1.838c-0.389,25.963-7.278,75.314-48.762,116.624c0,0-22.861-8.886-41.271-49.313
						C1265.682,2777.325,1267.848,2770.396,1273.382,2767.148z"/>
					<path style="fill:#FFFFFF;" d="M1352.367,3011.725c-0.07,0-0.142,0-0.213,0l-77.932-0.748
						c-11.134-0.105-20.325-7.764-21.38-17.815l-6.85-65.388c-0.402-3.839,0.79-7.635,3.357-10.688
						c2.872-3.416,7.217-5.561,11.923-5.885l0,0c6.565-0.447,15.812-1.236,25.6-2.069c20.612-1.756,46.265-3.939,60.698-4.12
						c0.105,0,0.21-0.003,0.314-0.003c10.249,0,19.066,6.241,21.509,15.267c4.06,15.01,3.703,43.423,2.931,73.692
						C1372.074,3003.8,1363.141,3011.725,1352.367,3011.725z M1261.681,2917.173c-3.094,0.21-5.92,1.583-7.752,3.764
						c-1.512,1.797-2.216,4.003-1.985,6.212l6.85,65.387c0.736,7.024,7.394,12.38,15.485,12.456l77.933,0.748
						c0.051,0,0.104,0,0.156,0c7.552,0,13.805-5.321,13.974-11.925c0.76-29.81,1.124-57.743-2.726-71.979
						c-1.727-6.376-8.458-11.004-15.971-10.841c-14.217,0.178-39.749,2.352-60.264,4.099
						C1277.566,2915.931,1268.295,2916.72,1261.681,2917.173L1261.681,2917.173z"/>
					<path style="opacity:0.6;fill:#FFFFFF;" d="M1270.064,2923.922c16.372-1.119,51.954-4.732,68.831-4.942
						c7.151-0.089,13.423,4.231,15.099,10.432c3.257,12.043,2.826,36.048,2.26,58.203c-0.169,6.635-6.264,11.932-13.705,11.861
						l-62.278-0.598c-7.659-0.074-14.017-5.296-14.73-12.097l-5.475-52.253C1259.501,2929.124,1263.996,2924.337,1270.064,2923.922z
						"/>
					<g style="opacity:0.6;">
						<path style="fill:#FFFFFF;" d="M1420.817,2968.308L1420.817,2968.308c2.256,8.556,10.028,14.491,18.876,14.415l721.061-6.148
							c8.157-0.07,14.682-6.796,14.504-14.952c-0.174-7.928-6.632-14.276-14.562-14.312l-721.079-3.289
							C1426.887,2943.964,1417.57,2956,1420.817,2968.308z"/>
					</g>
					
						<linearGradient id="SVGID_00000094616152559618131530000014359464012436750751_" gradientUnits="userSpaceOnUse" x1="1720.7712" y1="2237.998" x2="1322.8235" y2="2917.2012">
						<stop  offset="0" style="stop-color:#E1473D"/>
						<stop  offset="1" style="stop-color:#E9605A"/>
					</linearGradient>
					<path style="fill:url(#SVGID_00000094616152559618131530000014359464012436750751_);" d="M1273.382,2934.176L1273.382,2934.176
						c5.786-3.395,13.231-1.369,16.499,4.489l15.372,27.555c1.539,2.758,5.564,2.584,6.858-0.297l38.125-84.879
						c1.902-4.234,8.207-2.803,8.138,1.838c-0.389,25.963-7.278,75.314-48.762,116.624c0,0-22.861-8.886-41.271-49.313
						C1265.682,2944.353,1267.848,2937.423,1273.382,2934.176z"/>
				</g>
				<g>
					
						<linearGradient id="SVGID_00000068643580474473878210000014437968664514674616_" gradientUnits="userSpaceOnUse" x1="-6460.1147" y1="-1184.1072" x2="-6673.2432" y2="973.8354" gradientTransform="matrix(-0.9999 0.0125 0.0125 0.9999 -4613.6963 53.633)">
						<stop  offset="0" style="stop-color:#E1473D"/>
						<stop  offset="1" style="stop-color:#E9605A"/>
					</linearGradient>
					<polygon style="fill:url(#SVGID_00000068643580474473878210000014437968664514674616_);" points="2152.484,1891.257 
						2185.753,1890.84 2183.864,1740.263 2150.595,1740.681 					"/>
					
						<linearGradient id="SVGID_00000124864810517233320440000000129382728022272135_" gradientUnits="userSpaceOnUse" x1="-6402.5288" y1="-1178.4083" x2="-6615.6553" y2="979.5168" gradientTransform="matrix(-0.9999 0.0125 0.0125 0.9999 -4613.6963 53.633)">
						<stop  offset="0" style="stop-color:#E1473D"/>
						<stop  offset="1" style="stop-color:#E9605A"/>
					</linearGradient>
					<polygon style="fill:url(#SVGID_00000124864810517233320440000000129382728022272135_);" points="2096.896,1891.954 
						2130.165,1891.537 2128.925,1792.711 2095.656,1793.129 					"/>
					
						<linearGradient id="SVGID_00000160192038721813088700000013877806493383371434_" gradientUnits="userSpaceOnUse" x1="-6353.7222" y1="-1173.6111" x2="-6566.8506" y2="984.3362" gradientTransform="matrix(-0.9999 0.0125 0.0125 0.9999 -4613.6963 53.633)">
						<stop  offset="0" style="stop-color:#E1473D"/>
						<stop  offset="1" style="stop-color:#E9605A"/>
					</linearGradient>
					<polygon style="fill:url(#SVGID_00000160192038721813088700000013877806493383371434_);" points="2041.307,1892.652 
						2074.576,1892.234 2071.732,1665.51 2038.463,1665.927 					"/>
					
						<linearGradient id="SVGID_00000070077468180154764920000011094380330385426571_" gradientUnits="userSpaceOnUse" x1="-6290.2495" y1="-1167.2764" x2="-6503.3745" y2="990.6307" gradientTransform="matrix(-0.9999 0.0125 0.0125 0.9999 -4613.6963 53.633)">
						<stop  offset="0" style="stop-color:#E1473D"/>
						<stop  offset="1" style="stop-color:#E9605A"/>
					</linearGradient>
					<polygon style="fill:url(#SVGID_00000070077468180154764920000011094380330385426571_);" points="1985.719,1893.349 
						2018.987,1892.932 2018.304,1838.464 1985.036,1838.881 					"/>
					
						<linearGradient id="SVGID_00000167388506050233523810000004984295592148980925_" gradientUnits="userSpaceOnUse" x1="-6242.126" y1="-1162.5825" x2="-6455.2539" y2="995.3557" gradientTransform="matrix(-0.9999 0.0125 0.0125 0.9999 -4613.6963 53.633)">
						<stop  offset="0" style="stop-color:#E1473D"/>
						<stop  offset="1" style="stop-color:#E9605A"/>
					</linearGradient>
					<polygon style="fill:url(#SVGID_00000167388506050233523810000004984295592148980925_);" points="1930.13,1894.046 
						1963.399,1893.629 1960.935,1697.216 1927.666,1697.633 					"/>
					
						<linearGradient id="SVGID_00000088851798612154701960000006302135688106208678_" gradientUnits="userSpaceOnUse" x1="-6185.4077" y1="-1156.9631" x2="-6398.5356" y2="1000.972" gradientTransform="matrix(-0.9999 0.0125 0.0125 0.9999 -4613.6963 53.633)">
						<stop  offset="0" style="stop-color:#E1473D"/>
						<stop  offset="1" style="stop-color:#E9605A"/>
					</linearGradient>
					<polygon style="fill:url(#SVGID_00000088851798612154701960000006302135688106208678_);" points="1874.541,1894.744 
						1907.811,1894.326 1905.774,1731.921 1872.504,1732.338 					"/>
					
						<linearGradient id="SVGID_00000103954529489691423050000012957029497862926728_" gradientUnits="userSpaceOnUse" x1="-6128.5435" y1="-1151.3435" x2="-6341.6709" y2="1006.5907" gradientTransform="matrix(-0.9999 0.0125 0.0125 0.9999 -4613.6963 53.633)">
						<stop  offset="0" style="stop-color:#E1473D"/>
						<stop  offset="1" style="stop-color:#E9605A"/>
					</linearGradient>
					<polygon style="fill:url(#SVGID_00000103954529489691423050000012957029497862926728_);" points="1818.953,1895.441 
						1852.222,1895.024 1850.648,1769.583 1817.38,1770.001 					"/>
					
						<linearGradient id="SVGID_00000111188759839724934310000012063875496788148105_" gradientUnits="userSpaceOnUse" x1="-6080.6763" y1="-1146.6432" x2="-6293.8052" y2="1011.3046" gradientTransform="matrix(-0.9999 0.0125 0.0125 0.9999 -4613.6963 53.633)">
						<stop  offset="0" style="stop-color:#E1473D"/>
						<stop  offset="1" style="stop-color:#E9605A"/>
					</linearGradient>
					<polygon style="fill:url(#SVGID_00000111188759839724934310000012063875496788148105_);" points="1763.365,1896.138 
						1796.633,1895.721 1793.214,1623.16 1759.946,1623.577 					"/>
					
						<linearGradient id="SVGID_00000157991460582792467260000012060339267394787974_" gradientUnits="userSpaceOnUse" x1="-6024.21" y1="-1141.0619" x2="-6237.3389" y2="1016.8848" gradientTransform="matrix(-0.9999 0.0125 0.0125 0.9999 -4613.6963 53.633)">
						<stop  offset="0" style="stop-color:#E1473D"/>
						<stop  offset="1" style="stop-color:#E9605A"/>
					</linearGradient>
					<polygon style="fill:url(#SVGID_00000157991460582792467260000012060339267394787974_);" points="1707.776,1896.836 
						1741.045,1896.418 1737.988,1652.69 1704.719,1653.107 					"/>
					
						<linearGradient id="SVGID_00000125588137804415707120000001709463844063566233_" gradientUnits="userSpaceOnUse" x1="-5967.0225" y1="-1135.3904" x2="-6180.1519" y2="1022.5629" gradientTransform="matrix(-0.9999 0.0125 0.0125 0.9999 -4613.6963 53.633)">
						<stop  offset="0" style="stop-color:#E1473D"/>
						<stop  offset="1" style="stop-color:#E9605A"/>
					</linearGradient>
					<polygon style="fill:url(#SVGID_00000125588137804415707120000001709463844063566233_);" points="1652.188,1897.533 
						1685.456,1897.116 1682.946,1697.006 1649.677,1697.424 					"/>
					
						<linearGradient id="SVGID_00000045612123229258374480000017791260534786674592_" gradientUnits="userSpaceOnUse" x1="-5904.6035" y1="-1129.1687" x2="-6117.7275" y2="1028.734" gradientTransform="matrix(-0.9999 0.0125 0.0125 0.9999 -4613.6963 53.633)">
						<stop  offset="0" style="stop-color:#E1473D"/>
						<stop  offset="1" style="stop-color:#E9605A"/>
					</linearGradient>
					<polygon style="fill:url(#SVGID_00000045612123229258374480000017791260534786674592_);" points="1596.599,1898.23 
						1629.868,1897.813 1629.248,1848.4 1595.98,1848.818 					"/>
					
						<linearGradient id="SVGID_00000127724058567554890250000007270520989135081117_" gradientUnits="userSpaceOnUse" x1="-5854.2339" y1="-1124.2446" x2="-6067.3613" y2="1033.6888" gradientTransform="matrix(-0.9999 0.0125 0.0125 0.9999 -4613.6963 53.633)">
						<stop  offset="0" style="stop-color:#E1473D"/>
						<stop  offset="1" style="stop-color:#E9605A"/>
					</linearGradient>
					<polygon style="fill:url(#SVGID_00000127724058567554890250000007270520989135081117_);" points="1541.011,1898.928 
						1574.279,1898.51 1572.455,1753.109 1539.187,1753.526 					"/>
				</g>
				<g>
					<g style="opacity:0.64;">
						<path style="fill:#FFFFFF;" d="M1440.521,1677.227h-223.365c-14.02,0-25.385-11.365-25.385-25.385
							c0-14.02,11.365-25.386,25.385-25.386h223.365c14.019,0,25.386,11.366,25.386,25.386
							C1465.907,1665.863,1454.54,1677.227,1440.521,1677.227z"/>
						<path style="fill:#FFFFFF;" d="M1440.613,1779.081h-223.365c-14.02,0-25.385-11.365-25.385-25.385
							c0-14.021,11.365-25.386,25.385-25.386h223.365c14.019,0,25.386,11.366,25.386,25.386
							C1465.999,1767.716,1454.632,1779.081,1440.613,1779.081z"/>
						<path style="fill:#FFFFFF;" d="M1440.521,1880.135h-223.365c-14.02,0-25.385-11.365-25.385-25.385
							c0-14.02,11.365-25.386,25.385-25.386h223.365c14.019,0,25.386,11.366,25.386,25.386
							C1465.907,1868.771,1454.54,1880.135,1440.521,1880.135z"/>
						<path style="fill:#FFFFFF;" d="M1601.564,1990.593h500.259c31.401,0,56.854,18.232,56.854,40.721v239.8
							c0,22.49-25.453,40.722-56.854,40.722h-500.259c-31.402,0-56.855-18.232-56.855-40.722v-239.8
							C1544.708,2008.825,1570.161,1990.593,1601.564,1990.593z"/>
						<path style="fill:#FFFFFF;" d="M1217.323,1980.318h223.216c14.01,0,25.37,19.406,25.37,43.343v255.237
							c0,23.938-11.36,43.344-25.37,43.344h-223.216c-14.01,0-25.368-19.406-25.368-43.344v-255.237
							C1191.954,1999.724,1203.312,1980.318,1217.323,1980.318z"/>
					</g>
				</g>
			</g>
			
				<linearGradient id="SVGID_00000083068248069383802510000005793167187560354455_" gradientUnits="userSpaceOnUse" x1="1849.2501" y1="1048.524" x2="1346.5809" y2="1709.7736">
				<stop  offset="0" style="stop-color:#09005D"/>
				<stop  offset="1" style="stop-color:#1A0F91"/>
			</linearGradient>
			<path style="fill:url(#SVGID_00000083068248069383802510000005793167187560354455_);" d="M1727.323,1211.65
				c-39.475-27.462-73.799-26.918-97.962-19.788c-22.042,6.504-36.327,27.784-34.231,50.67l10.42,113.736l123.996,11.004
				C1729.547,1367.272,1804.739,1265.507,1727.323,1211.65z M1672.794,1303.407c-17.076,0-30.918-13.842-30.918-30.918
				c0-17.076,13.842-30.919,30.918-30.919c17.076,0,30.918,13.843,30.918,30.919
				C1703.712,1289.565,1689.87,1303.407,1672.794,1303.407z"/>
			<path style="fill:#FFFFFF;" d="M1617.937,1308.423c-1.53,0-2.834-1.166-2.976-2.72l-1.66-18.113
				c-0.152-1.645,1.061-3.1,2.706-3.252c1.678-0.157,3.103,1.061,3.252,2.709l1.659,18.113c0.152,1.645-1.061,3.1-2.706,3.252
				C1618.119,1308.421,1618.027,1308.423,1617.937,1308.423z M1614.684,1272.927c-1.53,0-2.834-1.166-2.976-2.72l-1.261-13.75
				c-1.999-21.801,11.72-42.1,32.617-48.268c14.799-4.368,30.048-4.994,45.318-1.861c1.619,0.33,2.662,1.914,2.33,3.532
				c-0.332,1.616-1.901,2.65-3.531,2.329c-14.304-2.928-28.575-2.347-42.424,1.739c-18.164,5.362-30.089,23.019-28.352,41.985
				l1.261,13.751c0.152,1.645-1.061,3.1-2.706,3.252C1614.867,1272.925,1614.775,1272.927,1614.684,1272.927z"/>
			
				<linearGradient id="SVGID_00000124141063055632583110000016543559468187965601_" gradientUnits="userSpaceOnUse" x1="1904.389" y1="1090.4382" x2="1401.7194" y2="1751.6884">
				<stop  offset="0" style="stop-color:#09005D"/>
				<stop  offset="1" style="stop-color:#1A0F91"/>
			</linearGradient>
			<path style="fill:url(#SVGID_00000124141063055632583110000016543559468187965601_);" d="M1436.318,1429.77v-57.183
				c0-19.74,16.36-35.549,36.089-34.874l394.253,13.508c17.497,0.599,31.666,14.41,32.714,31.886l3.295,54.945L1436.318,1429.77z"/>
			<path style="fill:#FFFFFF;" d="M1583.325,1359.259h-16.955c-1.652,0-2.992-1.338-2.992-2.992c0-1.654,1.34-2.992,2.992-2.992
				h16.955c1.652,0,2.992,1.338,2.992,2.992C1586.317,1357.921,1584.977,1359.259,1583.325,1359.259z"/>
			<path style="fill:#FFFFFF;" d="M1457.657,1411.814c-1.652,0-2.992-1.338-2.992-2.992v-23.133
				c0-17.874,14.541-32.413,32.415-32.413h62.334c1.652,0,2.992,1.338,2.992,2.992c0,1.654-1.34,2.992-2.992,2.992h-62.334
				c-14.573,0-26.431,11.857-26.431,26.429v23.133C1460.649,1410.476,1459.309,1411.814,1457.657,1411.814z"/>
			
				<linearGradient id="SVGID_00000074406747285135259460000010638844200280623491_" gradientUnits="userSpaceOnUse" x1="1663.8892" y1="858.0059" x2="1663.8892" y2="1293.6145">
				<stop  offset="0" style="stop-color:#FF928E"/>
				<stop  offset="1" style="stop-color:#FE7062"/>
			</linearGradient>
			<path style="fill:url(#SVGID_00000074406747285135259460000010638844200280623491_);" d="M1275.676,1444.209
				c0.951-19.802,17.283-35.367,37.108-35.368l689.425-0.019c24.79-0.001,45.983,17.839,50.212,42.265l0.583,3.371
				c4.632,26.755-15.967,51.226-43.12,51.226h-707.31c-16.25,0-29.2-13.587-28.42-29.818L1275.676,1444.209z"/>
		</g>
		<g>
			<g>
				
					<linearGradient id="SVGID_00000150809090794515187190000002238898333620114613_" gradientUnits="userSpaceOnUse" x1="10210.6309" y1="1857.3481" x2="10370.8457" y2="2221.8716" gradientTransform="matrix(1 0 0 1 -7701.9111 0)">
					<stop  offset="0" style="stop-color:#FEBBBA"/>
					<stop  offset="1" style="stop-color:#FF928E"/>
				</linearGradient>
				<path style="fill:url(#SVGID_00000150809090794515187190000002238898333620114613_);" d="M2481.108,1714.618
					c-10.387-14.162-24.709-29.742-38.091-43.309c-5.867,0.015-14.604,6.102-14.604,6.102c-5.042,9.111-11.192,16.803-14.075,27.824
					c-2.183,8.347-0.848,17.265,3.368,24.861c4.232,7.624,10.005,17.533,15.463,25.288c10.33,14.678,25.061,14.789,25.061,14.789
					c-1.292,4.108,13.674,10.365,22.486-6.439C2481.023,1755.68,2485.921,1721.179,2481.108,1714.618z"/>
			</g>
			
				<linearGradient id="SVGID_00000150068879188276073270000009515897897814536338_" gradientUnits="userSpaceOnUse" x1="-2303.8408" y1="3110.3958" x2="-2842.7095" y2="3696.5342" gradientTransform="matrix(-1 0 0 1 418.6782 0)">
				<stop  offset="0" style="stop-color:#09005D"/>
				<stop  offset="1" style="stop-color:#1A0F91"/>
			</linearGradient>
			<path style="fill:url(#SVGID_00000150068879188276073270000009515897897814536338_);" d="M2892.856,3154.06
				c0,0,5.581,31.593,8.317,62.867c1.069,12.222-8.354,22.834-20.613,23.346c-41.647,1.734-130.733,5.107-162.699,3.68
				c-4.806-0.215-7.948-5.134-6.169-9.604c1.49-3.745,4.365-6.773,8.027-8.456l147.153-67.631L2892.856,3154.06z"/>
			
				<linearGradient id="SVGID_00000062897902189782361820000017411444289634053254_" gradientUnits="userSpaceOnUse" x1="-2478.7495" y1="3153.9294" x2="-2430.8848" y2="3153.9294" gradientTransform="matrix(-1 0 0 1 418.6782 0)">
				<stop  offset="0" style="stop-color:#FEBBBA"/>
				<stop  offset="1" style="stop-color:#FF928E"/>
			</linearGradient>
			<path style="fill:url(#SVGID_00000062897902189782361820000017411444289634053254_);" d="M2897.428,3135.497l-4.484,37.789
				c0,0-25.777,12-43.381-1.512l10.675-42.113L2897.428,3135.497z"/>
			
				<linearGradient id="SVGID_00000072983991833597319310000005307909932843199137_" gradientUnits="userSpaceOnUse" x1="-2261.4106" y1="2447.5361" x2="-2719.9363" y2="3069.0085" gradientTransform="matrix(-1 0 0 1 418.6782 0)">
				<stop  offset="0" style="stop-color:#09005D"/>
				<stop  offset="1" style="stop-color:#1A0F91"/>
			</linearGradient>
			<path style="fill:url(#SVGID_00000072983991833597319310000005307909932843199137_);" d="M2894.058,2425.043
				c1.937,9.868,10.395,492.461-41.19,708.728c-0.842,3.529,0.947,7.166,4.306,8.539c7.912,3.232,23.423,7.913,42.012,8.538
				c5.757,0.193,10.918-3.548,12.542-9.074c14.746-50.177,85.404-301.579,94.621-541.735c10.3-268.352,0-9.138,0-9.138
				l-6.041-165.878L2894.058,2425.043z"/>
			
				<linearGradient id="SVGID_00000129176787512820490510000001967816642588490941_" gradientUnits="userSpaceOnUse" x1="-2424.7278" y1="2999.259" x2="-2963.5955" y2="3585.3967" gradientTransform="matrix(-1 0 0 1 418.6782 0)">
				<stop  offset="0" style="stop-color:#09005D"/>
				<stop  offset="1" style="stop-color:#1A0F91"/>
			</linearGradient>
			<path style="fill:url(#SVGID_00000129176787512820490510000001967816642588490941_);" d="M3062.13,3170.542
				c0,0,8.883,15.949,17.484,58.33c1.553,7.655-3.795,14.98-11.567,15.744c-13.752,1.352-34.923,3.091-51.881,2.974
				c-7.817-0.054-13.918-6.861-12.977-14.621c1.879-15.47,7.731-40.85,25.809-60.632L3062.13,3170.542z"/>
			
				<linearGradient id="SVGID_00000182521281017212752670000007986724921115605160_" gradientUnits="userSpaceOnUse" x1="-2651.2544" y1="3151.4749" x2="-2609.9275" y2="3151.4749" gradientTransform="matrix(-1 0 0 1 418.6782 0)">
				<stop  offset="0" style="stop-color:#FEBBBA"/>
				<stop  offset="1" style="stop-color:#FF928E"/>
			</linearGradient>
			<path style="fill:url(#SVGID_00000182521281017212752670000007986724921115605160_);" d="M3069.933,3121.936l-10.476,57.147
				c0,0-10.359,7.705-30.851,2.119l5-61.487L3069.933,3121.936z"/>
			
				<linearGradient id="SVGID_00000054975878834046538780000003784592219459679146_" gradientUnits="userSpaceOnUse" x1="-2343.1306" y1="2387.2422" x2="-2801.6563" y2="3008.7144" gradientTransform="matrix(-1 0 0 1 418.6782 0)">
				<stop  offset="0" style="stop-color:#09005D"/>
				<stop  offset="1" style="stop-color:#1A0F91"/>
			</linearGradient>
			<path style="fill:url(#SVGID_00000054975878834046538780000003784592219459679146_);" d="M3098.235,2439.852
				c42.19,254.62-9.152,629.314-26.467,702.651c-1.061,4.49-4.684,7.93-9.235,8.685c-7.729,1.281-20.454,2.327-32.999-1.317
				c-4.322-1.256-7.36-5.154-7.536-9.652c-2.323-59.291,1.858-423.277-37.453-567.126c-1.992-7.29-6.444-13.648-12.603-18.027
				l-76.301-54.244l-5.85-87.68L3098.235,2439.852z"/>
			
				<linearGradient id="SVGID_00000071523929338397572500000005493013961420816520_" gradientUnits="userSpaceOnUse" x1="-2695.3113" y1="2214.9272" x2="-2281.1782" y2="2214.9272" gradientTransform="matrix(-1 0 0 1 418.6782 0)">
				<stop  offset="0" style="stop-color:#09005D"/>
				<stop  offset="1" style="stop-color:#1A0F91"/>
			</linearGradient>
			<path style="fill:url(#SVGID_00000071523929338397572500000005493013961420816520_);" d="M2829.398,1957.396
				c126.437-2.089,265.943,33.198,265.943,33.198c37.688,219.908,6.59,473.555,6.59,473.555
				c-97.884,25.669-208.302-15.694-208.302-15.694c-16.269-91.916-92.175-350.598-92.175-350.598
				c-61.776-7.667-48.36-58.361-90.267-81.924c31.966-37.054-17.27-19.087-10.725-46.958
				C2745.166,1982.867,2790.402,1958.041,2829.398,1957.396z"/>
			<path style="fill:#FFFFFF;" d="M2455.93,1771.163c12.42-15.002,28.14-7.905,28.14-7.905
				c18.606,78.595,116.165,142.321,216.393,173.469c-6.545,27.872-21.615,75.021-53.582,112.076
				C2480.543,1955.278,2455.93,1771.163,2455.93,1771.163z"/>
			<path style="fill:#BDD0FB;" d="M3046.846,2113.021l48.495-122.427c0,0,118.098,80.242,137.52,181.981
				c-22.314,1.644-62.92,7.448-102.665,27.516C3121.463,2152.052,3046.846,2113.021,3046.846,2113.021z"/>
			
				<linearGradient id="SVGID_00000140716617879983949990000015279381544527190711_" gradientUnits="userSpaceOnUse" x1="-2579.2539" y1="1920.7362" x2="-2456.9043" y2="1920.7362" gradientTransform="matrix(-1 0 0 1 418.6782 0)">
				<stop  offset="0" style="stop-color:#FEBBBA"/>
				<stop  offset="1" style="stop-color:#FF928E"/>
			</linearGradient>
			<path style="fill:url(#SVGID_00000140716617879983949990000015279381544527190711_);" d="M2957.468,1854.75l40.23,116.342
				c0.666,1.927-0.125,4.062-1.91,5.048c-10.967,6.063-50.476,23.589-98.088-6.599c-4.96-3.144-8.336-8.273-9.09-14.098
				l-13.027-100.694H2957.468z"/>
			<path style="fill:#BDD0FB;" d="M3033.82,1977.497l-48.006-40.77l-71.813,175.327l52.369,696.704l163.509,4.89
				c1.156,0.034,2.275-0.411,3.092-1.231c0.816-0.82,1.257-1.94,1.218-3.096l-22.828-670.267c0,0-0.626-144.836-16.018-148.46
				C3079.949,1986.97,3033.82,1977.497,3033.82,1977.497z"/>
			<path style="fill:#FFFFFF;" d="M2914.001,2103.054l-27.813-166.327l-23.805,20.925l-50.184-0.487l-10.744,140.692l71.607,719.943
				c0.113,1.137,0.686,2.178,1.585,2.882s2.048,1.01,3.178,0.847l88.545-12.772L2914.001,2103.054z"/>
			<path style="fill:#FFFFFF;" d="M2818.79,1957.354c0,0-80.655-5.558-127.217-23.481c-54.678,97.181-68.895,100.033-68.895,100.033
				s66.231,58.754,178.776,63.951C2914.001,2103.054,2818.79,1957.354,2818.79,1957.354z"/>
			
				<linearGradient id="SVGID_00000019653736118754249800000015632391070044306838_" gradientUnits="userSpaceOnUse" x1="-2474.6245" y1="2146.9548" x2="-2246.2512" y2="1982.6024" gradientTransform="matrix(-1 0 0 1 418.6782 0)">
				<stop  offset="0" style="stop-color:#9CFFFB"/>
				<stop  offset="1" style="stop-color:#9BFFFA"/>
			</linearGradient>
			<polygon style="fill:url(#SVGID_00000019653736118754249800000015632391070044306838_);" points="2884.571,2110.633 
				2884.571,2127.686 2819.523,2123.896 2819.523,2104.948 			"/>
			<path style="fill:#7D97F4;" d="M2917.875,2153.199c0.4,0,0.808-0.096,1.192-0.3l55.175-29.632
				c0.696-0.376,1.176-1.06,1.296-1.844l7.465-50.318l19.57-3.472c0.928-0.164,1.68-0.832,1.96-1.732l21.291-69.161
				c0.408-1.328-0.336-2.732-1.664-3.14c-1.32-0.416-2.728,0.336-3.136,1.66l-20.843,67.696l-19.834,3.52
				c-1.064,0.188-1.888,1.036-2.048,2.104l-7.545,50.858l-54.071,29.036c-1.216,0.656-1.68,2.18-1.024,3.4
				C2916.115,2152.719,2916.979,2153.199,2917.875,2153.199z"/>
			<path style="fill:#BDD0FB;" d="M2904.761,2135.965c0.32,0,0.64-0.08,0.936-0.248c0.904-0.516,1.216-1.664,0.704-2.568
				l-28.852-50.578l4.745-28.471c0.136-0.796-0.256-1.592-0.968-1.972l-22.955-12.214l5.889-82.126
				c0.072-1.04-0.704-1.94-1.744-2.016c-1.208-0.132-1.944,0.712-2.016,1.744l-5.977,83.35c-0.056,0.744,0.336,1.448,0.992,1.8
				l22.843,12.154l-4.633,27.795c-0.072,0.424,0.008,0.864,0.216,1.24l29.18,51.158
				C2903.473,2135.625,2904.105,2135.965,2904.761,2135.965z"/>
			<g>
				<path style="fill:#BDD0FB;" d="M2943.495,2224.635c0,0,132.594,74.937,177.333,10.949c9.289-13.286,11.51-26.49,9.221-39.079
					c39.745-20.068,80.351-25.873,102.665-27.516c5.855,30.671,2.76,63.291-15.263,96.26
					c-78.368,143.357-291.504-7.923-291.504-7.923L2943.495,2224.635z"/>
				<g>
					
						<linearGradient id="SVGID_00000119820110124797721400000017001987473004762779_" gradientUnits="userSpaceOnUse" x1="-2415.7153" y1="2028.6028" x2="-2246.6536" y2="2733.0283" gradientTransform="matrix(-1 0 0 1 418.6782 0)">
						<stop  offset="0" style="stop-color:#09005D"/>
						<stop  offset="1" style="stop-color:#1A0F91"/>
					</linearGradient>
					<path style="fill:url(#SVGID_00000119820110124797721400000017001987473004762779_);" d="M2956.977,2310.882l-69.915-244.16
						c-0.821-2.868-3.268-4.961-6.233-5.306c-13.111-1.529-51.102-5.824-94.968-9.534c-45.473-3.847-97.259-7.065-134.183-5.923
						c-13.119,0.406-21.431,14.207-15.574,25.953c27.363,54.87,95.885,189.769,136.193,247.073
						c5.072,7.21,13.361,11.434,22.176,11.352l149.015-1.387C2952.849,2328.862,2959.554,2319.882,2956.977,2310.882z"/>
					
						<linearGradient id="SVGID_00000047021932338990868830000018066783202284106915_" gradientUnits="userSpaceOnUse" x1="-2530.2456" y1="2215.5349" x2="-2433.8362" y2="2215.5349" gradientTransform="matrix(-1 0 0 1 418.6782 0)">
						<stop  offset="0" style="stop-color:#FEBBBA"/>
						<stop  offset="1" style="stop-color:#FF928E"/>
					</linearGradient>
					<path style="fill:url(#SVGID_00000047021932338990868830000018066783202284106915_);" d="M2941.943,2258.381
						c0,0,10.081-41.451,6.015-56.157c-4.066-14.706-11.945-33.614-38.205-29.412c-26.26,4.202-57.238,15.264-57.238,15.264
						s1.565,19.155,21.523,12.975l-12.376,9.577c0,0,1.769,15.337,18.627,7.144l-11.511,12.7c0,0,7.24,12.597,19.643,4.517
						S2906.769,2263.373,2941.943,2258.381z"/>
				</g>
			</g>
			<path style="fill:#7D97F4;" d="M3068.333,2262.621c12.449,0,23.883-1.84,32.596-6.625c1.216-0.664,1.664-2.192,0.992-3.408
				c-0.664-1.216-2.184-1.664-3.408-0.992c-34.988,19.21-121.879-13.866-122.743-14.202c-0.264-0.092-16.914-5.881-22.827-17.406
				c-0.632-1.232-2.136-1.728-3.376-1.092c-1.232,0.632-1.72,2.148-1.088,3.38c6.841,13.354,24.819,19.583,25.579,19.843
				C2976.778,2243.166,3027.88,2262.621,3068.333,2262.621z"/>
			<path style="fill:#7D97F4;" d="M3116.139,2329.409c1.352,0,2.464-1.068,2.512-2.424c0.048-1.388-1.04-2.552-2.424-2.6
				c-100.316-3.453-157.54-49.386-158.107-49.85c-1.072-0.876-2.656-0.716-3.537,0.352c-0.88,1.072-0.72,2.656,0.352,3.532
				c0.576,0.476,59.007,47.47,161.116,50.99C3116.083,2329.409,3116.115,2329.409,3116.139,2329.409z"/>
			<g>
				
					<linearGradient id="SVGID_00000054987257444548679280000017509011314888383380_" gradientUnits="userSpaceOnUse" x1="-2619.7107" y1="-2292.5303" x2="-2789.4568" y2="-2067.9702" gradientTransform="matrix(-0.8116 -0.5843 -0.5843 0.8116 -576.573 2074.8411)">
					<stop  offset="0" style="stop-color:#FEBBBA"/>
					<stop  offset="1" style="stop-color:#FF928E"/>
				</linearGradient>
				<path style="fill:url(#SVGID_00000054987257444548679280000017509011314888383380_);" d="M2862.65,1724.66
					c-1.308,1.816-42.115,144.05-42.115,144.05l81.708,21.573l58.705-129.061C2960.948,1761.222,2884.541,1694.253,2862.65,1724.66z
					"/>
				
					<linearGradient id="SVGID_00000088123904636237024690000004891084921996453790_" gradientUnits="userSpaceOnUse" x1="-2749.3499" y1="-2238.6021" x2="-2546.5854" y2="-2238.6021" gradientTransform="matrix(-0.8116 -0.5843 -0.5843 0.8116 -576.573 2074.8411)">
					<stop  offset="0" style="stop-color:#09005D"/>
					<stop  offset="1" style="stop-color:#1A0F91"/>
				</linearGradient>
				<path style="fill:url(#SVGID_00000088123904636237024690000004891084921996453790_);" d="M2928.5,1770.774
					c2.002,3.189,2.421,7.101,1.135,10.641l-25.214,69.343c-0.383,1.052-0.89,2.035-1.55,2.94
					c-3.634,4.99-16.482,19.942-31.386,5.868c-12.704-11.995-24.544-22.844-35.611-26.119c-6.462-1.912-13.215,1.926-15.05,8.412
					c-3.779,13.359-10.859,40.469-13.767,65.439c-0.729,6.259,3.542,11.998,9.725,13.208c16.317,3.195,48.366,8.479,75.609,6.994
					c4.475-0.244,8.434-2.92,10.338-6.976c8.382-17.852,32.077-67.795,40.936-80.864c8.231-12.142,27.802-11.962,36.758-11.17
					c3.4,0.3,6.743-0.811,9.278-3.096c7.602-6.854,20.119-22.68,2.137-41.873c-4.471-4.772-4.133-12.349,0.545-16.918
					c8.384-8.186,16.51-22.075,2.848-39.364c-13.832-17.502-32.132-15.765-44.074-11.896c-5.284,1.712-11.33-0.061-14.385-4.7
					c-1.358-2.064-3.555-3.62-7.088-3.651c-6.664-0.057-12.01-5.104-11.997-11.768c0.022-11.426-4.376-25.412-23.827-31.666
					c-35.674-11.47-58.309,22.886-60.76,48.657c-2.451,25.772,36.934,36.009,60.163,34.486
					C2910.327,1745.582,2922.983,1761.986,2928.5,1770.774z"/>
				
					<linearGradient id="SVGID_00000083090293866476579120000012092083578503240636_" gradientUnits="userSpaceOnUse" x1="-2868.3232" y1="-2114.6941" x2="-2732.1724" y2="-2254.3813" gradientTransform="matrix(-0.8116 -0.5843 -0.5843 0.8116 -576.573 2074.8411)">
					<stop  offset="0" style="stop-color:#FEBBBA"/>
					<stop  offset="1" style="stop-color:#FF928E"/>
				</linearGradient>
				<path style="fill:url(#SVGID_00000083090293866476579120000012092083578503240636_);" d="M2934.096,1865.185
					c0,0,6.198-44.722,24.845-46.742c18.648-2.02,36.635,13.458,17.881,38.418
					C2953.494,1887.907,2934.096,1865.185,2934.096,1865.185z"/>
			</g>
			
				<linearGradient id="SVGID_00000080897834119173891090000009128365788656981395_" gradientUnits="userSpaceOnUse" x1="2845.6116" y1="1913.157" x2="2954.8193" y2="1913.157">
				<stop  offset="0" style="stop-color:#2B3582"/>
				<stop  offset="1" style="stop-color:#150E42"/>
			</linearGradient>
			<path style="fill:url(#SVGID_00000080897834119173891090000009128365788656981395_);" d="M2873.934,1985.093
				c-10.461,0-18.187-3.664-22.963-10.89c-15.126-22.89,6.471-74.224,7.397-76.398c0.724-1.695,2.686-2.484,4.378-1.762
				c1.698,0.722,2.487,2.683,1.764,4.38c-0.212,0.499-21.124,50.198-7.967,70.103c3.511,5.309,9.199,7.891,17.392,7.891
				c61.808,0,74.105-132.809,74.222-134.151c0.156-1.835,1.835-3.177,3.615-3.035c1.835,0.16,3.195,1.778,3.035,3.614
				c-0.03,0.347-3.146,35.078-14.318,69.345C2925.363,1960.575,2902.348,1985.093,2873.934,1985.093z"/>
			
				<linearGradient id="SVGID_00000170242382221681927440000016199697443853865902_" gradientUnits="userSpaceOnUse" x1="2453.033" y1="1917.0564" x2="2865.7317" y2="1917.0564">
				<stop  offset="0" style="stop-color:#2B3582"/>
				<stop  offset="1" style="stop-color:#150E42"/>
			</linearGradient>
			<path style="fill:url(#SVGID_00000170242382221681927440000016199697443853865902_);" d="M2730.948,2076.408
				c-9.467,0-19.576-0.588-30.396-1.861c-84.119-9.897-153.611-67.269-200.961-165.912
				c-35.598-74.167-46.418-146.388-46.522-147.109c-0.267-1.826,0.998-3.519,2.82-3.785c1.822-0.272,3.517,0.996,3.785,2.82
				c0.104,0.712,10.81,72.069,46.007,145.331c32.29,67.213,92.448,149.883,195.654,162.025
				c58.265,6.864,104.024-6.026,132.324-37.258c21.287-23.488,25.398-49.15,25.437-49.406c0.277-1.821,1.972-3.079,3.801-2.799
				c1.822,0.277,3.074,1.98,2.797,3.803C2865.54,1983.274,2849.873,2076.408,2730.948,2076.408z"/>
			
				<linearGradient id="SVGID_00000063606140282746314270000006706919073197052092_" gradientUnits="userSpaceOnUse" x1="2354.0864" y1="1704.3505" x2="2466.9077" y2="1704.3505">
				<stop  offset="0" style="stop-color:#09005D"/>
				<stop  offset="1" style="stop-color:#1A0F91"/>
			</linearGradient>
			<path style="fill:url(#SVGID_00000063606140282746314270000006706919073197052092_);" d="M2466.908,1704.35
				c0,45.002-25.256,81.483-56.41,81.483c-31.156,0-56.411-36.48-56.411-81.483c0-45.001,25.256-81.481,56.411-81.481
				C2441.652,1622.869,2466.908,1659.349,2466.908,1704.35z"/>
			
				<linearGradient id="SVGID_00000060748209527858911080000004680209158630128308_" gradientUnits="userSpaceOnUse" x1="861.3348" y1="1964.207" x2="929.4258" y2="1859.517" gradientTransform="matrix(-0.9769 0.2135 0.2135 0.9769 2888.0393 -355.333)">
				<stop  offset="0" style="stop-color:#FEBBBA"/>
				<stop  offset="1" style="stop-color:#FF928E"/>
			</linearGradient>
			<path style="fill:url(#SVGID_00000060748209527858911080000004680209158630128308_);" d="M2440.048,1710.526l25.437,13.503
				l10.696,16.641l-14.494,25.408c0,0-14.289-34.533-20.771-41.267C2434.434,1718.077,2436.092,1713.774,2440.048,1710.526z"/>
		</g>
	</g>
</g>
</svg>
