<svg id="bed6fe65-6c21-42ba-9a5e-ba147922be92" data-name="Layer 1" xmlns="http://www.w3.org/2000/svg" width="865.76" height="682.89" viewBox="0 0 865.76 682.89"><g id="a3767171-d07a-4bd6-9320-15ac4f02058a" data-name="freesvgillustration--background-complete--inject-6"><rect x="717.13" y="618.53" width="56.45" height="0.43" fill="#ebebeb"/><rect x="556.5" y="623.17" width="14.81" height="0.43" fill="#ebebeb"/><rect x="682.72" y="602.72" width="32.71" height="0.43" fill="#ebebeb"/><rect x="96.21" y="605.58" width="73.61" height="0.43" fill="#ebebeb"/><rect x="185.01" y="605.58" width="10.79" height="0.43" fill="#ebebeb"/><rect x="230.87" y="612.77" width="159.66" height="0.43" fill="#ebebeb"/><path d="M410.73,515.1H81.64a9.73,9.73,0,0,1-9.72-9.73V42.77a9.74,9.74,0,0,1,9.72-9.65H410.73a9.73,9.73,0,0,1,9.73,9.73h0V505.37A9.73,9.73,0,0,1,410.73,515.1ZM81.64,33.46a9.31,9.31,0,0,0-9.29,9.31v462.6a9.31,9.31,0,0,0,9.29,9.3H410.73a9.32,9.32,0,0,0,9.3-9.3V42.77a9.32,9.32,0,0,0-9.3-9.31Z" fill="#ebebeb"/><path d="M779.39,515.1H450.28a9.75,9.75,0,0,1-9.73-9.73V42.77a9.76,9.76,0,0,1,9.73-9.65H779.39a9.73,9.73,0,0,1,9.69,9.65v462.6A9.73,9.73,0,0,1,779.39,515.1ZM450.28,33.46a9.32,9.32,0,0,0-9.3,9.31v462.6a9.32,9.32,0,0,0,9.3,9.3H779.39a9.32,9.32,0,0,0,9.3-9.3V42.77a9.32,9.32,0,0,0-9.3-9.31Z" fill="#ebebeb"/><rect x="6.8" y="591.11" width="852.16" height="0.43" fill="#ebebeb"/><rect x="199.08" y="522.55" width="467.77" height="69.25" fill="#f0f0f0"/><rect x="93.6" y="248.68" width="8.83" height="228.09" fill="#e6e6e6"/><rect x="762.94" y="248.68" width="8.83" height="228.09" fill="#e6e6e6"/><polygon points="202.87 591.26 202.87 523.09 161.95 476.77 94.01 475.4 94.01 591.55 202.87 591.26" fill="#e6e6e6"/><polygon points="663.3 591.26 663.3 523.09 704.21 476.77 772.16 475.4 772.16 591.55 663.3 591.26" fill="#e6e6e6"/><path d="M691,537c-1.21-.71-1.7-1.91-1-2.89,1.34-1.81,5.11-.57,6.68,1s3,3.63,5.71,3.59l-7.28-9.7c-.72-1,.85-2,2.18-1.44a26.16,26.16,0,0,1,8.32,5.36l-14.28-16.15a5.7,5.7,0,0,1-1.71-3,2.48,2.48,0,0,1,2.44-2.42,5,5,0,0,1,4.09,2.13l9.22,10.62a51.67,51.67,0,0,1-10-30.68c0-2.43,4.83-3.17,6.34-1a54.36,54.36,0,0,1,8,17.3,12.38,12.38,0,0,1,2.87-14.23,4.28,4.28,0,0,1,3-1.25c3.27,0,3.58,2.87,3.08,4.88q-2.91,12-5.84,24a19.4,19.4,0,0,1,4.48-7.84c1.45-1.59,5-.6,4.42,1.24A65.49,65.49,0,0,1,713.5,533c.87-2.46,1.89-5.12,5.3-6.38,2.28-.87,5.32-.49,6.54,1.11,1.84,2.4-2.11,4.91-5,6.82-7,4.57-7.94,10.55-7.44,16.79C705.11,549.13,696.78,540.53,691,537Z" fill="#fafafa"/><path d="M734.27,539.3a2.17,2.17,0,0,0,1.06-2.81c-1-1.91-4.3-.89-5.71.66s-2.79,3.53-5.11,3.41l6.81-9.64c.7-1-.63-2.24-1.85-1.71a22.64,22.64,0,0,0-7.83,5.11l13.86-16.46a6.52,6.52,0,0,0,1.79-3.19,3.08,3.08,0,0,0-2-3.27c-1.71-.49-3,.77-3.92,1.91l-9.26,11.23a72.6,72.6,0,0,0,11.44-37.31c.15-3.51-4.79-6.2-6.53-3.41a71.69,71.69,0,0,0-9.1,22.31c2.45-5.88,1.4-13.82-3.19-21.23a6.78,6.78,0,0,0-3.66-3c-4.06-1.19-4.31,3.31-3.62,6.63,2.59,12.44,5,23.77,7.13,34.09a31,31,0,0,0-5-10.59c-1.71-2.4-5.81-1.7-5,.84a97.43,97.43,0,0,0,9.3,20.89c-.9-2.83-2-6-5.64-7.89-2.54-1.33-5.91-1.24-7.23.6-1.94,2.74,2.66,6.1,5.88,8.52,7.28,5.44,8.17,11.64,7.72,17.77C721.68,550.53,729.19,542.4,734.27,539.3Z" fill="#fff"/><path d="M695.89,591.25l-3.76-34.09s13.8-11.93,28.75-7.94,13,7,13,7l-2.48,35.33Z" fill="#fff"/><polygon points="190.14 537.7 176.79 519.17 141.82 519.17 153.08 537.7 190.14 537.7" fill="#fff"/><polygon points="185.82 534.82 174.56 519.17 145.01 519.17 154.52 534.82 185.82 534.82" fill="#f0f0f0"/><polygon points="141.82 519.17 153.08 537.7 190.14 537.7 190.14 544.17 128.41 544.58 128.41 537.7 133.18 537.7 141.82 519.17" fill="#f0f0f0"/><polygon points="193.29 537.7 159.27 537.7 159.27 544.38 193.29 544.24 193.29 537.7" fill="#fafafa"/><polygon points="189.1 544.63 184.8 591.43 137.51 591.61 133.19 544.63 189.1 544.63" fill="#fff"/><polygon points="152.61 544.24 153.94 591.54 137.51 591.61 133.19 544.63 152.61 544.24" fill="#f0f0f0"/><rect x="102.84" y="248.27" width="660.51" height="228.09" fill="#fafafa"/><path d="M734.87,270.92c-3.6-1.16-8.3-.1-10.23,2.34L599.22,430.33c-2.74,3.4-10.39,3.8-13,.59L488,309.92c-1.81-2.22-6.41-2.88-10.06-1.44L344.82,361.15a11.07,11.07,0,0,1-7.55.2l-188.92-68.2c-3.51-1.28-8.29-.31-10.37,2.08l-.44.49c-1.87,2.16-.89,4.7,2.28,5.85l196.56,71a11.07,11.07,0,0,0,7.55-.2l127.74-50.55c3.65-1.43,8.25-.79,10.06,1.45l104,127.92c2.61,3.21,10.23,2.86,13-.6L737.56,276.68C739.3,274.5,738.12,272,734.87,270.92Z" fill="#f0f0f0"/><polygon points="202.87 523.16 664.33 523.09 704.92 476.77 161.08 476 202.87 523.16" fill="#f5f5f5"/><rect x="211.22" y="534.49" width="86.99" height="57.32" fill="#e0e0e0"/><rect x="306.83" y="534.49" width="78.36" height="57.32" fill="#e0e0e0"/><rect x="393.82" y="534.49" width="78.36" height="57.32" fill="#e0e0e0"/><rect x="480.81" y="534.49" width="78.36" height="57.32" fill="#e0e0e0"/><rect x="567.8" y="534.49" width="86.99" height="57.32" fill="#e0e0e0"/><path d="M630.79,589.37a2.87,2.87,0,0,0,2.84,2.78,2.66,2.66,0,0,0,2.66-2.65v-.13a2.86,2.86,0,0,0-2.83-2.78,2.68,2.68,0,0,0-2.67,2.68Z" fill="#f0f0f0"/><path d="M589.51,589.29a2.72,2.72,0,0,1-2.64,2.78h-.09a2.88,2.88,0,0,1-2.84-2.8,2.69,2.69,0,0,1,2.6-2.78h.12A2.87,2.87,0,0,1,589.51,589.29Z" fill="#f0f0f0"/><path d="M614.32,589.2a3.41,3.41,0,0,1-3.28,3.53h-.13a3.65,3.65,0,0,1-3.61-3.53,3.41,3.41,0,0,1,3.29-3.52h.12a3.64,3.64,0,0,1,3.58,3.53Z" fill="#f0f0f0"/><path d="M610.86,585l-.13-5.37h7.92a26.73,26.73,0,0,1,4.64.46L638.05,583a1.38,1.38,0,0,1,1.11,1.56,1.3,1.3,0,0,1-1.32,1.09Z" fill="#fafafa"/><path d="M610.86,585l-.13-5.37H602.8a24.86,24.86,0,0,0-4.63.43l-16.57,2.61a1.32,1.32,0,0,0-1,1.56v0a1.42,1.42,0,0,0,1.4,1.11Z" fill="#fafafa"/><polygon points="614.94 555.29 605.21 555.22 605.82 579.62 615.62 579.66 614.94 555.29" fill="#fafafa"/><polygon points="613.23 544 606.3 543.97 609.88 558.51 613.54 555.27 613.23 544" fill="#fafafa"/><polygon points="613.32 547.31 606.43 549 606.3 543.97 613.23 544 613.32 547.31" fill="#e0e0e0" opacity="0.5" style="isolation:isolate"/><polygon points="634.79 518.99 631.32 518.95 631.78 533.74 635.27 533.78 634.79 518.99" fill="#e0e0e0"/><path d="M577,543.75h-.9A4.51,4.51,0,0,0,577,543.75Z" fill="#407bff"/><path d="M650,539.79a4.25,4.25,0,0,1-4.06,4.45h-.26L614.51,544h-5.59l-.34-12.53-1.36-51.55a8.62,8.62,0,0,0-3.05-6.27l-4.69-4a9,9,0,0,0-5.49-2.11l5.39.09a8.74,8.74,0,0,1,5.6,2.13l4.71,4a8.75,8.75,0,0,1,3,6.28l1.43,51.51,24.87.2a11.52,11.52,0,0,1,2.19.21,12.32,12.32,0,0,1,8,5.59A4.34,4.34,0,0,1,650,539.79Z" fill="#e0e0e0"/><path d="M612.21,547.26l-1.7-64.07a8.64,8.64,0,0,0-3.06-6.28l-4.68-4a8.88,8.88,0,0,0-5.63-2.13l-12.93-.21a8.32,8.32,0,0,0-6.14,2.51l-3.25,3.41a7.92,7.92,0,0,0-2.22,5.65l1.06,58.31a6.82,6.82,0,0,0,6.7,6.58Z" fill="#e6e6e6"/><path d="M621.35,523.36a36.1,36.1,0,0,1,23.69.23,3.25,3.25,0,0,0,4.1-1.55h0A3.26,3.26,0,0,0,647,518l-.16,0a42.17,42.17,0,0,0-27.64-.27,3,3,0,0,0-2.19,3.69c0,.13.08.25.13.38h0A3.51,3.51,0,0,0,621.35,523.36Z" fill="#e6e6e6"/><path d="M237.5,589.37a2.87,2.87,0,0,1-2.85,2.78A2.66,2.66,0,0,1,232,589.5v-.13a2.9,2.9,0,0,1,2.85-2.78,2.66,2.66,0,0,1,2.66,2.66Z" fill="#f0f0f0"/><path d="M278.79,589.29a2.69,2.69,0,0,0,2.61,2.77h.1a2.87,2.87,0,0,0,2.85-2.8,2.67,2.67,0,0,0-2.57-2.78h-.16a2.85,2.85,0,0,0-2.83,2.8Z" fill="#f0f0f0"/><path d="M253.93,589.2a3.41,3.41,0,0,0,3.29,3.53h.12a3.64,3.64,0,0,0,3.59-3.53,3.39,3.39,0,0,0-3.28-3.52h-.13A3.65,3.65,0,0,0,253.93,589.2Z" fill="#f0f0f0"/><path d="M257.42,585l.16-5.37h-7.91a26.5,26.5,0,0,0-4.62.46L230.29,583a1.38,1.38,0,0,0-1.11,1.56,1.27,1.27,0,0,0,1.31,1.09Z" fill="#fafafa"/><path d="M257.42,585l.16-5.37h7.92a24.67,24.67,0,0,1,4.62.43l16.58,2.61a1.33,1.33,0,0,1,1.05,1.56v0a1.42,1.42,0,0,1-1.4,1.11Z" fill="#fafafa"/><polygon points="253.35 555.29 263.1 555.22 262.47 579.62 252.67 579.66 253.35 555.29" fill="#fafafa"/><polygon points="255.07 544 261.99 543.97 261.7 555.22 254.76 555.27 255.07 544" fill="#fafafa"/><polygon points="254.97 547.31 261.87 549 261.99 543.97 255.07 544 254.97 547.31" fill="#e0e0e0" opacity="0.5" style="isolation:isolate"/><polygon points="233.49 518.99 236.99 518.95 236.51 533.74 233.02 533.78 233.49 518.99" fill="#e0e0e0"/><path d="M291.27,543.75h.9A4.51,4.51,0,0,1,291.27,543.75Z" fill="#407bff"/><path d="M218.29,539.79a4.3,4.3,0,0,0,4.14,4.45h.21l31.15-.22h5.58l.34-12.53,1.38-51.55a8.48,8.48,0,0,1,3.05-6.27l4.68-4a9.09,9.09,0,0,1,5.49-2.11l-5.4.09a8.84,8.84,0,0,0-5.61,2.13l-4.68,4a8.61,8.61,0,0,0-3,6.25l-1.43,51.5-24.86.21a11.92,11.92,0,0,0-10.25,5.79A4.55,4.55,0,0,0,218.29,539.79Z" fill="#e0e0e0"/><path d="M259.38,544l1.71-64.09a8.48,8.48,0,0,1,3.05-6.27l4.67-4a8.93,8.93,0,0,1,5.62-2.13l12.95-.21a8.23,8.23,0,0,1,6.12,2.53l3.28,3.4a8,8,0,0,1,2.19,5.66l-1,58.32a6.82,6.82,0,0,1-6.71,6.57Z" fill="#e6e6e6"/><path d="M247,523.36a36.16,36.16,0,0,0-23.71.23,3.25,3.25,0,0,1-4.09-1.55h0a3.26,3.26,0,0,1,2.16-4.07l.14,0a42.2,42.2,0,0,1,27.65-.27,3,3,0,0,1,2.21,3.62,4,4,0,0,1-.15.45h0A3.52,3.52,0,0,1,247,523.36Z" fill="#e6e6e6"/></g><g id="aac05714-a8b1-4565-8625-5847c7704e9e" data-name="freesvgillustration--monitor-screen--inject-6"><g id="a90ab29c-395f-42bd-bbc0-2bb084fb296b" data-name="freesvgillustration--PC--inject-6"><polygon points="729.25 251.8 550.55 250.78 562.07 127.4 740.75 128.44 729.25 251.8" fill="#d1d3d4"/></g></g><g opacity="0.2"><path d="M603.31,193.2a32.94,32.94,0,0,0-4.36-1.49,23.52,23.52,0,0,0-2.62-.57,3.85,3.85,0,0,1-1-3.17,13.9,13.9,0,0,1,.87-2.33l-.17-.12a12,12,0,0,0,8-7.53,43.12,43.12,0,0,0,1.87-8.9c0-.44-.4-2-.34-2.42s.53-1.48.58-1.86a12.36,12.36,0,0,0-.88-6.95c-1.57-2.54-4-3.72-9.24-3.94-6.58-.31-11.78,1.7-12.53,5.57-3.73,19.09,2,21.89,3.41,23.51a13,13,0,0,1-3,8.3,22.48,22.48,0,0,0-6.7,2.31c-1.46.79-7.39,3.82-8.28,5.22-3.15,5.11-5.66,16.74-5.66,16.74l50.26.25V203.69a14.08,14.08,0,0,0-1.11-2.8A17.66,17.66,0,0,0,603.31,193.2Z"/></g><polygon points="586.44 245.54 559.38 245.54 561.59 220.17 588.47 220.17 586.44 245.54" fill="#fff"/><polygon points="590.09 220.17 662.73 220.17 660.51 245.54 588.47 245.54 590.09 220.17" opacity="0.1" style="isolation:isolate"/><polygon points="724.75 214.94 626.44 214.94 632.34 147.58 730.64 147.58 724.75 214.94" fill="#fff" opacity="0.3" style="isolation:isolate"/><g opacity="0.2"><path d="M719.75,201a2.65,2.65,0,0,1-.92-.19,5.27,5.27,0,0,1-2.62-5.32,21.89,21.89,0,0,1,.29-2.42,13.91,13.91,0,0,0,.27-3.41c-.14-1.79-1.35-3.73-3.07-3.76a3.59,3.59,0,0,0-3.17,2.78,12.48,12.48,0,0,0-.48,3.22,7.68,7.68,0,0,1-.13,1.7,6.1,6.1,0,0,1-2.4,4.55,3.45,3.45,0,0,1-3.11.14,2.48,2.48,0,0,1-1.27-1.3l-2.54,1.52a.37.37,0,0,1-.29,0,.31.31,0,0,1-.24-.19,26.39,26.39,0,0,1-1.26-3,1.72,1.72,0,0,0-1.71-1.16h0a1.71,1.71,0,0,0-1.7,1.23L693.91,200a.35.35,0,0,1-.34.25h0a.37.37,0,0,1-.35-.25l-.72-2.05a2.26,2.26,0,0,1-.44.53,2.45,2.45,0,0,1-1.71.63,2.34,2.34,0,0,1-1.7-.85,2.65,2.65,0,0,1-.38-.6,3.17,3.17,0,0,1-.49.4,2.12,2.12,0,0,1-1.7.23A2.15,2.15,0,0,1,684.8,197a.59.59,0,0,0-.32-.78.6.6,0,0,0-.71.18,3,3,0,0,1-2.35-1.28,4.75,4.75,0,0,1-.65-2,3.89,3.89,0,0,1-.71.56,4.59,4.59,0,0,1-4.64,0c-2.18-1.4-3-4.07-3.75-6.68l-4.33-16.31a13,13,0,0,0-1.78-4.46,4.28,4.28,0,0,0-3.91-1.88,6.85,6.85,0,0,0-1.43.53,6.11,6.11,0,0,1-2,.6,2.27,2.27,0,0,1-2.11-1.13v-.17l-4,3.77a.39.39,0,0,1-.5,0,.42.42,0,0,1,0-.5.39.39,0,0,0,0-.53,1.16,1.16,0,0,0-1.21-.4,3.59,3.59,0,0,0-1.49,1.32c-.18.21-.33.41-.5.6a2.41,2.41,0,0,1-3.12.75,2.61,2.61,0,0,1-.61-.75,3.75,3.75,0,0,0-.24-.36,2.65,2.65,0,0,0-3.41-.32,8.56,8.56,0,0,0-2.66,3.07.33.33,0,0,1-.29.17.42.42,0,0,1-.32-.16l-1.6-2.26a.38.38,0,1,1,.5-.56.38.38,0,0,1,.09.13l1.3,1.81a8.11,8.11,0,0,1,2.61-2.85,3.11,3.11,0,0,1,4.37.55,2,2,0,0,1,.26.39,2.14,2.14,0,0,0,.43.56c.63.48,1.62-.08,2.13-.66.15-.17.3-.36.46-.57a4.29,4.29,0,0,1,1.84-1.56,1.9,1.9,0,0,1,2,.66,1.75,1.75,0,0,1,.18.29l4.16-3.94a.36.36,0,0,1,.51,0h0a.37.37,0,0,1,0,.52.55.55,0,0,0-.1.66,1.72,1.72,0,0,0,1.43.89,5.12,5.12,0,0,0,1.71-.55,7.07,7.07,0,0,1,1.6-.56,4.91,4.91,0,0,1,4.64,2.16,13.62,13.62,0,0,1,1.9,4.71L672.59,187c.69,2.57,1.47,5,3.41,6.23a3.83,3.83,0,0,0,3.87,0,2.34,2.34,0,0,0,1.09-1.34v-.75a.38.38,0,0,1,.36-.34h0a.38.38,0,0,1,.37.34,2.43,2.43,0,0,1,0,.85,5,5,0,0,0,.55,3,2.18,2.18,0,0,0,1.7.93h0a1.17,1.17,0,0,0,1-.49.38.38,0,0,1,.5-.1.36.36,0,0,1,.14.48h0a1.46,1.46,0,0,0,0,1.16,1.4,1.4,0,0,0,2.66-.31.38.38,0,0,1,.41-.3.35.35,0,0,1,.31.4h0a1.72,1.72,0,0,0,1.53,1.8,1.71,1.71,0,0,0,1.76-1.58.37.37,0,0,1,.31-.36.36.36,0,0,1,.4.24l.72,2.06,1.14-3.53a2.52,2.52,0,0,1,2.39-1.7h0a2.42,2.42,0,0,1,2.33,1.7c.33.87.68,1.71,1.08,2.58l2.6-1.57a.36.36,0,0,1,.35,0,.35.35,0,0,1,.2.29,1.67,1.67,0,0,0,1,1.22,2.52,2.52,0,0,0,2.4-.08,5.37,5.37,0,0,0,2.06-4c0-.53.1-1.06.14-1.59a14.06,14.06,0,0,1,.51-3.41,4.38,4.38,0,0,1,3.9-3.29,4.51,4.51,0,0,1,3.77,4.47,14.23,14.23,0,0,1-.28,3.51,18.6,18.6,0,0,0-.28,2.35,4.57,4.57,0,0,0,2.16,4.6,2.31,2.31,0,0,0,2.52-.83,1.36,1.36,0,0,0,.19-1.71.37.37,0,0,1,0-.52.37.37,0,0,1,.53,0,.64.64,0,0,1,.1.13,2,2,0,0,1-.21,2.54A3.28,3.28,0,0,1,719.75,201Z"/></g><g opacity="0.1"><path d="M680.3,227.41,678,239.07h-2.71l-3.76-6.36-1.28,6.39H667l2.31-11.66H672l3.85,6.38,1.26-6.38Z"/><path d="M685.38,230l-.4,2h5.12l-.48,2.46h-5.2l-.41,2.13h6.22l-.52,2.55h-9.34l2.33-11.66h9.12l-.53,2.56Z"/><path d="M711.93,227.41l-6.1,11.66H702.3l-.85-7-3.72,7h-3.54l-1.43-11.66H696l.89,7.45,3.93-7.45h3l.82,7.55,4-7.55Z"/><path d="M710.26,238.08l1.31-2.45a7.37,7.37,0,0,0,3.87,1.14c1.26,0,2-.39,2-1,0-1.56-5.65-.71-5.65-4.36,0-2.52,2.14-4.17,5.59-4.17a8.26,8.26,0,0,1,4.21,1l-1.21,2.46a5.83,5.83,0,0,0-3.19-.89c-1.36,0-2.1.49-2.1,1.12,0,1.61,5.66.69,5.66,4.28,0,2.51-2.2,4.14-5.61,4.14A9.14,9.14,0,0,1,710.26,238.08Z"/></g><path d="M466.09,99.35,459,181.58a2.13,2.13,0,0,1-2.08,1.93l-76,.13a1.72,1.72,0,0,1-1.7-1.91l9.17-107a2.13,2.13,0,0,1,2.08-1.92h51.23Z" fill="#d1d3d4"/><path d="M452,124.15l-53.68.25a1.72,1.72,0,0,0-1.71,1.52v.49a1.38,1.38,0,0,0,1.22,1.5H398l53.69-.25a1.7,1.7,0,0,0,1.7-1.52v-.49a1.37,1.37,0,0,0-1.22-1.5A1.08,1.08,0,0,0,452,124.15Z" fill="#fff"/><path d="M450.81,138.51l-53.72.28a1.69,1.69,0,0,0-1.7,1.51v.5a1.34,1.34,0,0,0,1.18,1.49h.2l53.68-.26a1.7,1.7,0,0,0,1.71-1.52V140a1.38,1.38,0,0,0-1.2-1.51Z" fill="#fff"/><path d="M449.62,152.86l-53.69.26a1.69,1.69,0,0,0-1.7,1.52v.49a1.36,1.36,0,0,0,1.2,1.51h.18l53.68-.28a1.7,1.7,0,0,0,1.71-1.51v-.5a1.37,1.37,0,0,0-1.22-1.49Z" fill="#fff"/><path d="M441.07,72.69,439,97.51a1.69,1.69,0,0,0,1.48,1.89l.22,0h24.73Z" opacity="0.2"/><path d="M225.55,243.4h-75.7a25.34,25.34,0,0,1-25.8-24.88,24.86,24.86,0,0,1,.15-3.23L134.52,97.13A31.31,31.31,0,0,1,165.1,69h75.71a25.34,25.34,0,0,1,25.71,25,23.65,23.65,0,0,1-.15,3.15L256,215.29A31.29,31.29,0,0,1,225.55,243.4Z" fill="#d1d3d4"/><path d="M225.31,227.41H164.13a4.55,4.55,0,0,1-4.64-4.46,4.63,4.63,0,0,1,0-.65h0a5.62,5.62,0,0,1,5.48-5.12H226.2a4.57,4.57,0,0,1,4.64,4.47,4.73,4.73,0,0,1,0,.65h0A5.62,5.62,0,0,1,225.31,227.41Z" fill="#fff"/><path d="M232,151.4H189.8a4.54,4.54,0,0,1-4.64-4.43,3.83,3.83,0,0,1,0-.68h0a5.62,5.62,0,0,1,5.49-5.12h42.17a4.55,4.55,0,0,1,4.63,4.47,4.79,4.79,0,0,1,0,.65h0A5.63,5.63,0,0,1,232,151.4Z" fill="#fff"/><path d="M230.22,171.17H174a4.54,4.54,0,0,1-4.64-4.43,5.07,5.07,0,0,1,0-.68h0a5.61,5.61,0,0,1,5.47-5.12h56.24a4.56,4.56,0,0,1,4.64,4.47,4.82,4.82,0,0,1,0,.65h0A5.61,5.61,0,0,1,230.22,171.17Z" fill="#fff"/><path d="M228.48,191.07H186.32a4.55,4.55,0,0,1-4.64-4.46,4.73,4.73,0,0,1,0-.65h0a5.6,5.6,0,0,1,5.48-5.11h42.17a4.55,4.55,0,0,1,4.64,4.46,4.63,4.63,0,0,1,0,.65h0A5.6,5.6,0,0,1,228.48,191.07Z" fill="#fff"/><path d="M226.75,210.91H184.58a4.55,4.55,0,0,1-4.64-4.46,4.73,4.73,0,0,1,0-.65h0a5.62,5.62,0,0,1,5.49-5.11h42.16a4.53,4.53,0,0,1,4.64,4.42,5.32,5.32,0,0,1,0,.69h0A5.6,5.6,0,0,1,226.75,210.91Z" fill="#fff"/><polygon points="236.54 131.76 156.31 131.76 160.43 84.69 240.67 84.69 236.54 131.76" opacity="0.2"/><rect x="517.7" y="210.06" width="21.59" height="6.08" transform="matrix(0.97, -0.26, 0.26, 0.97, -37.34, 145.63)" fill="#d1d3d4"/><polygon points="521.56 211.83 516.55 211.39 519.05 220.68 523.11 217.71 521.56 211.83" fill="#2f2e41"/><rect x="530.46" y="203.69" width="32.33" height="9.68" transform="translate(-35.51 150.21) rotate(-15.16)" fill="#d1d3d4"/><path d="M585.45,212.28,550.09,214l-3.31-12.13,31.41-16.33,2.2,5a58,58,0,0,1,4.36,16Z" fill="#2f2e41"/><path d="M475.49,293.56c0-11.29,5.64-17.05,10.06-24.27l15.95-26c.76-1.25-4.11,6.68-1.4,1.94,1.52-2.64,6.68-2.67,8.76,1.71-5.57,10.22-6.58,18.74-9.88,29.92a158.37,158.37,0,0,1-5.8,15.34C482.92,311.28,475.49,298.46,475.49,293.56Z" fill="#3f3d56"/><path d="M499.35,247c1.43-2.93,4.64-8.9,6-11.84a3.2,3.2,0,0,1,.94-1.3,3.44,3.44,0,0,1,1.17-.39,21,21,0,0,1,9.6-.31,1,1,0,0,1,.61.32,1.05,1.05,0,0,1,.19.58c.24,1.71.48,3.55.73,5.32a2.28,2.28,0,0,1,0,1.16,2.48,2.48,0,0,1-.75.92l-4.55,4a5.89,5.89,0,0,1-2.59,1.58,7.77,7.77,0,0,1-4.5-1.21C504.46,245.15,499.35,247,499.35,247Z" fill="#d1d3d4"/><path d="M499.35,247c1.43-2.93,4.64-8.9,6-11.84a3.2,3.2,0,0,1,.94-1.3,3.44,3.44,0,0,1,1.17-.39,21,21,0,0,1,9.6-.31,1,1,0,0,1,.61.32,1.05,1.05,0,0,1,.19.58c.24,1.71.48,3.55.73,5.32a2.28,2.28,0,0,1,0,1.16,2.48,2.48,0,0,1-.75.92l-4.55,4a5.89,5.89,0,0,1-2.59,1.58,7.77,7.77,0,0,1-4.5-1.21C504.46,245.15,499.35,247,499.35,247Z" fill="#f9b499"/><path d="M502.5,265.76c-15.05-.16-17.18-8.39-17.18-8.39,4.57-4.28,5-12.3,4.15-19.48a16.74,16.74,0,0,0,4.39,4.37,13.72,13.72,0,0,0,11,2.19.31.31,0,0,0,.19,0,1.57,1.57,0,0,0-.09.43c-1,5.73-.36,11.93,5.62,13.8C510.56,258.63,519.09,265.93,502.5,265.76Z" fill="#f9b499"/><path d="M505.49,242.29a16.88,16.88,0,0,0-.46,2.11.31.31,0,0,1-.19,0,13.73,13.73,0,0,1-11-2.2,16.55,16.55,0,0,1-4.39-4.36c-.19-1.82-.48-3.61-.79-5.23l16.19,9.29Z" fill="#d1d3d4"/><path d="M480.72,258.67s2.52-7.3,6.15-9.55,19.35.5,21.8,1.52,4.83,6.82,4.83,6.82Z" fill="#407bff"/><path d="M480.72,258.67s2.52-7.3,6.15-9.55,19.35.5,21.8,1.52,4.83,6.82,4.83,6.82Z" fill="#fff" opacity="0.8" style="isolation:isolate"/><path d="M518.44,256.38c-2.44-.46-5.11-.88-7.93-1.16a216,216,0,0,0-25.19-.25l-5.54.41c-8.79.46-17.77,7.89-16.19,16.55,8.75,47.63,5.42,74.07,4.37,81.8l59.24.58c7.14-48.62,6-73.28,3.82-85.21A15.72,15.72,0,0,0,518.44,256.38Z" fill="#f28d00"/><path d="M529.5,337.07l-2.23,17.16c4.58-35.14,6.41-49.8,5-74.31L517,275.05C526.47,307.12,523,315,529.5,337.07Z" opacity="0.2" style="isolation:isolate"/><path d="M516.51,230.24a15.23,15.23,0,0,1-7.67,12.65h-.08a13.26,13.26,0,0,1-3.73,1.5.6.6,0,0,1-.19,0,13.73,13.73,0,0,1-11-2.2,16.74,16.74,0,0,1-4.39-4.37c-2.87-4.1-4-9.54-5.94-17.16a15,15,0,0,1,17.52-18.56C512.41,204.37,517,220.08,516.51,230.24Z" fill="#f9b499"/><path d="M508.76,242.9a13,13,0,0,1-3.73,1.5l.54-6.68S508,242.9,508.76,242.9Z" fill="#f4a490" style="isolation:isolate"/><path d="M509.92,223.49c-3.94,1.81-2.29,10.52-5.85,13.11a4.4,4.4,0,0,1-1.46.75c-1.71.39-9.07-9.68-9.68-12.14-1.59-6.41-1.57-10.48,3.27-13.21a47,47,0,0,1,10.73-4.1c1.71,0,3.41,2.88,3.79,5.69.13,1.28-1.71,2.93-1,3.56a11,11,0,0,1,2.75,4.48A15.33,15.33,0,0,1,509.92,223.49Z" fill="#2f2e41"/><path d="M501.58,237.33l-7,1.4-5.11-.84s-12.27-10.68-12.78-17.52,2.28-15.34,9.78-18.12a110.15,110.15,0,0,1,16.94-4.51s4.84,1.28,5.34,3.87a5.1,5.1,0,0,1-.79,4.1l-12.71,4.44a6.32,6.32,0,0,0-4.38,6h0C491,219.4,501.58,237.33,501.58,237.33Z" fill="#2f2e41"/><path d="M505.69,216.25c3.15,1,4.7,5.69,4.77,8.66.09,3.27-2.13,5.3-4.94,3.05a12.53,12.53,0,0,1-4.23-6.82C500.58,218,502.55,215.26,505.69,216.25Z" fill="#f9b499"/><polygon points="481.35 607.69 493.08 607.71 492.09 634.79 480.3 634.78 481.35 607.69" fill="#f9b499"/><path d="M494.85,634.35c8,4.93,10.48,5.11,19.75,7.18,2,.46.74,5.35-4.1,5.35-8,0-8.87-.4-15.72-.41-5.86,0-12.58.25-17.25.32a1.48,1.48,0,0,1-.42,0,1.7,1.7,0,0,1-1.26-2l2.26-10.47a1,1,0,0,1,1-.8H492A5.35,5.35,0,0,1,494.85,634.35Z" fill="#2f2e41"/><polygon points="401.49 607.52 412.92 608.36 406.18 635.66 394.67 634.83 401.49 607.52" fill="#f9b499"/><path d="M392,633.31c-3.15,3.66-4.82,5.54-13.89,8.37-2,.61-.31,5.38,4.53,5,8-.7,3.6-.68,10.42-1.28,5.84-.51,12.56-.82,17.21-1.14a1.45,1.45,0,0,0,.46-.09,1.7,1.7,0,0,0,1.15-2.12v0l-3.14-10.23a1,1,0,0,0-1-.7l-12.84,1.11A4,4,0,0,0,392,633.31Z" fill="#2f2e41"/><path d="M468,353.63a120.87,120.87,0,0,0-10.84,21.82c-6.29,17-4.06,25.87-6.16,37.37-3.69,20.23-9.22,35.79-13.1,51.13-12.1,48.05-42.13,149.51-42.13,149.51L416.38,618S459.16,500.14,470,465.76C479.84,434.83,505,353.53,505,353.53Z" fill="#2f2e41"/><path d="M493.37,391c-7.93,25.57-18,57.8-23.32,74.74-.25.82-.54,1.7-.82,2.57,2.12-28.29,7.67-75.72,21.89-77.46A5.19,5.19,0,0,1,493.37,391Z" opacity="0.3" style="isolation:isolate"/><path d="M487,353.53s-6,78-6.71,114.82c-.65,34.34-2.58,150.58-2.58,150.58h19.93s14-118.3,17.5-153.19c3.41-33,12.07-111.55,12.07-111.55Z" fill="#2f2e41"/><path d="M469.39,335.46l-21,43,5.55-1.6a55,55,0,0,1,27.43-.82h0l6.52-14.88-2,15.67h2.87a54.94,54.94,0,0,1,23.86,4.85,57.16,57.16,0,0,0,7.51,3.12c0-.47,7-30.47,7-30.47S517.86,304.87,469.39,335.46Z" fill="#f28d00"/><path d="M532.67,221.29s-7.06-3.68-8.27-6.73l-1.7-4.28a1.7,1.7,0,0,1,.95-2.11,28.66,28.66,0,0,1,12.8-2.2,3,3,0,0,1,2.44,1.82s1.81,8.53.39,9.46Z" fill="#f9b499"/><path d="M542.15,219.28l15.15,20.83c.49.66,1,1.34,1.41,2,11,16,12.22,29.81,7.59,31.7s-20.93,4.72-20.93,4.72L547.46,262l4.09-.68-17.77-36.9-1.54-3.77S537,212.51,542.15,219.28Z" fill="#f28d00"/><path d="M521.28,256a112.84,112.84,0,0,1,34,4l1.92,15.48s-30.28,10.23-40.24-.44C509.34,266.88,506.88,254.94,521.28,256Z" fill="#f28d00"/><path d="M356.38,263.2c0,.94.11,1.48.15,2.18v1.95c0,1.26,0,2.54-.09,3.78-.13,2.52-.41,5.11-.78,7.55a62.74,62.74,0,0,1-4.28,14.76,45.82,45.82,0,0,1-21.29,23.16,17,17,0,0,1-5.26,1.93,15.09,15.09,0,0,1-6.24-.23A21.18,21.18,0,0,1,310,313.6a51.28,51.28,0,0,1-9.68-11.93,121.12,121.12,0,0,1-11.44-25.57l7.41-3.08c2.12,3.71,4.35,7.57,6.82,11.2s4.77,7.22,7.38,10.49a42.46,42.46,0,0,0,8.11,8.18,7.13,7.13,0,0,0,3.21,1.49c.29,0,.3,0,.42-.09s-.17,0,.91-.66a33,33,0,0,0,13.63-16.45,51.39,51.39,0,0,0,2.92-11.11h0a14.05,14.05,0,0,1,11.52-11.93Z" fill="#f9b499"/><path d="M290,279.17c-5.12-4.09-5.12-11.93-5.12-11.93l16.45-3.17L296,276.82Z" fill="#f9b499"/><polygon points="301.41 264.1 284.96 267.26 286.81 255.26 298.6 250.67 301.41 264.1" fill="#f9b499"/><path d="M289.17,242.75a23.84,23.84,0,0,0,5.54,1.7c.48,0,.94.16,1.42.19,17.14,2.06,34.19-15,38.55-39,4.43-24.56-6.2-47.13-23.86-50.3s-35.5,14.18-40,38.76C266.93,216.09,274.94,236.38,289.17,242.75Zm-9.15-47c3.68-20.25,14.44-35.57,24.88-36.32a9.92,9.92,0,0,1,2.31,0h0a36.81,36.81,0,0,1,4.56.65c9.26,1.87,18,21.06,14,43.08-3.65,20.81-16.58,36.49-29.21,36.54a12.87,12.87,0,0,1-2.56-.18h-.77l-.37-.09a10.75,10.75,0,0,1-2.46-.87c-9.4-4.65-14-22.65-10.36-42.76Z" fill="#2f2e41"/><path d="M288.88,238.35a.67.67,0,0,1,0-.2l6.65,1.55c13.72,0,26.42-15.78,30.24-36.39,4.05-22-4.47-41.11-14.56-43.08a41.4,41.4,0,0,0-5-.7h0a36.77,36.77,0,0,0-4.19-.33c-11.35.63-23.49,16-26.74,36.36C272.25,214.44,276.9,235.28,288.88,238.35Z" fill="#fafafa" opacity="0.4" style="isolation:isolate"/><path d="M281.44,300.25c6.58,6.62,10.22.19,10.22.19l.53-6.66,2.39-30,.73-9.27.15-1.7.63-8,.4-5,.1-1.19-6.21-.27a.67.67,0,0,0,0,.2c-.15.51-.58,2.06-1.19,4.33-.15.65-.36,1.35-.54,2.13-1.15,4.33-2.66,10.4-4.13,17C281,277.81,277.79,296.59,281.44,300.25Z" fill="#2f2e41"/><path d="M344.79,448.8s1.36,47.88,1.7,60.42c1,40.48,11.85,123.44,11.85,123.44l14-.39s4.13-83.41-2.16-116.95a11.05,11.05,0,0,1,0-3.89l9.73-59.9Z" fill="#f9b499"/><path d="M380.7,446.88s9.08,37.49,18.4,59.73c11.28,26.86,59.65,114,59.65,114l9.31-8.74s-24.25-73.73-45.52-111.14a19.08,19.08,0,0,1-3-7c-1.5-11.67-1.57-45.84-6.82-57.7Z" fill="#f9b499"/><path d="M407.32,272.71v.56h0c-.16,1.71-.38,3.94-.62,6.38a.29.29,0,0,1,0,.13c-1.7,16.66-5.11,46.21-4.79,60.56a2.08,2.08,0,0,1,0,.61,4.46,4.46,0,0,1-.22,1.2,6,6,0,0,1-4.74,4.1A142.19,142.19,0,0,1,380.34,348H379a7.49,7.49,0,0,0,.1-1.34,6.13,6.13,0,0,0-.67-2.66H365.34c-7.72-.14-14.15-.45-16.94-.6a4,4,0,0,1,0,.49,3.94,3.94,0,0,1-.14-.49,3.08,3.08,0,0,1-.08-.53,178,178,0,0,0-6.56-34.78c-1.71-6.68-2.95-11.93-2.13-17.81,1.34-9.63,4.85-16.28,4.95-19.5a5.92,5.92,0,0,1,3.28-5.11,31.55,31.55,0,0,1,4.67-2h0a49.5,49.5,0,0,1,9.29-1.7h0v.08l.69,2.68.12.15h0l3.41,4.47,1,.22,4.33.92,4.68-.87.79-.14,6.51-4.19h0l2.4-1.94.29-.31.15-.12h0a161.14,161.14,0,0,1,16.71,3.41A5.94,5.94,0,0,1,407.32,272.71Z" fill="#f28d00"/><path d="M383.25,262.69c-4.45-4.41-3.3-24.83-3.3-24.83l-12.38,8.95s-.39,12.61-3.41,15.13c-.68.6-1.7.14-2.59.22l.86,3.19,2.47,3.9,3.3,2.22,4.78-.14,4.26-1.35,4.8-3.56L386,263C385.16,263,383.9,263.32,383.25,262.69Z" fill="#f9b499"/><path d="M366.79,250.32c8.28-1.18,11.93-5.61,13.63-9.07l-.46-3.41-12.37,8.95Z" fill="#f4a490" style="isolation:isolate"/><path d="M357.06,631.11l15.92-.92a1.28,1.28,0,0,1,1.31.92l3.61,12.78a2.12,2.12,0,0,1-1.42,2.64h0a2.14,2.14,0,0,1-.44.08c-5.74.24-10.86.21-18,.63-8.43.5-6.24,1.38-16.14,2.1-6,.42-7.45-6.31-4.92-6.82,11.48-2.13,12.49-5.69,16.72-10.11A5.15,5.15,0,0,1,357.06,631.11Z" fill="#f28d00"/><path d="M457.83,614.82l8.87-7a1.29,1.29,0,0,1,1.6,0l9.58,8.9a2.12,2.12,0,0,1,.42,3,2,2,0,0,1-.3.34c-4.44,3.65-5.92,4.33-11.36,9-6.42,5.47-4.14,4.86-11.6,11.4-4.5,3.94-9.75-.53-8-2.42,7.89-8.64,8.22-14,8.93-20A5.13,5.13,0,0,1,457.83,614.82Z" fill="#f28d00"/><path d="M404.33,345c-.61-1.06-1.24-2.06-1.92-3.05a7.54,7.54,0,0,0-.68-1c-.24-.36-.48-.72-.74-1l-53.32-2.85s.25,2.47.47,6.46c2.8.16,9.22.46,16.94.6h13.13a6.29,6.29,0,0,1,.66,2.66,6.67,6.67,0,0,1-.1,1.34,6.55,6.55,0,0,1-1.35,2.94c-3.27.17-6.59.29-9.8.39h-1.7a149.62,149.62,0,0,1-17.59-.28,141.54,141.54,0,0,1-1.28,22.26c-4.17,28.52-5.86,64.65-2,88.92v.24a4.27,4.27,0,0,0,.17.85,165.69,165.69,0,0,0,32.39,2.11,74.66,74.66,0,0,0,9.44-.8c9.29-1.33,18.9-.56,29.79-6.71C417,458,426.58,382.84,404.33,345Z" fill="#f28d00"/><path d="M378.94,346.8a6.67,6.67,0,0,1-.1,1.34,6.55,6.55,0,0,1-1.35,2.94c-3.27.17-6.59.29-9.8.39H366a149.59,149.59,0,0,1-17.59-.28c0-2.69-.12-5.11-.24-7.19a4,4,0,0,0,0-.49c2.8.15,9.22.46,16.94.6h13.12A6.17,6.17,0,0,1,378.94,346.8Z" fill="#2f2e41"/><path d="M406.6,349.2s-13.53,1.13-27.49,1.71l-1.62.08a6.56,6.56,0,0,0,1.35-2.93,6.82,6.82,0,0,0,.1-1.35,6.33,6.33,0,0,0-.66-2.66h1.39a132.2,132.2,0,0,0,21.84-1.92,4.05,4.05,0,0,0,.9-.21l.8-.18h0A39.56,39.56,0,0,0,406,348Z" fill="#2f2e41"/><path d="M361.52,261.84s4.52,16.21,24.56,1.24C386.08,263.08,365.41,288,361.52,261.84Z" fill="#f28d00"/><path d="M361.52,261.84s4.52,16.21,24.56,1.24C386.08,263.08,365.41,288,361.52,261.84Z" opacity="0.5" style="isolation:isolate"/><path d="M368.27,271.47a2.57,2.57,0,1,1,.73,5.09,2.24,2.24,0,0,1-.58,0Z" fill="#fff"/><path d="M384.77,224.65c-2.37,10.57-3.15,15.07-9.41,19.67-9.42,6.93-21.88,1.7-22.73-9.34-.74-10,3.25-25.57,14.38-28.11a14.78,14.78,0,0,1,17.76,17.78Z" fill="#f9b499"/><path d="M391.21,231.23c-5.54,3.78-6.07,11.69-11.33,15.83-1.3-3.63.76-9.47,1.7-13.77a2,2,0,0,0,0-1.41c-.42-.7-1.6-.53-2.13.12a4,4,0,0,0-.56,2.38c-.17-.41-.32-.82-.48-1.21-.37,1.71-.71,3.26-1.09,4.88a18.68,18.68,0,0,1-.24-3.81,7.52,7.52,0,0,1,.68-2.67c-14.84-37.14-13.05-34.22,3-32.38,6.65.76,12.22,6.25,14.11,12.69S398.8,226.1,391.21,231.23Z" fill="#2f2e41"/><path d="M386.35,233.31a7.84,7.84,0,0,1-4.6,3.75c-2.61.75-3.95-1.59-3.25-4.09.66-2.25,2.79-5.34,5.43-5.12a3.51,3.51,0,0,1,2.95,4,3.38,3.38,0,0,1-.53,1.39Z" fill="#f9b499"/><polygon points="381.58 236.09 380.42 241.79 381.14 243.28 382.38 241.73 381.58 236.09" fill="#f28d00"/><path d="M407.32,275.63a72.27,72.27,0,0,1-1.47,7.43c-13.22,40.12-31.58,39.4-36.44,31.27-3.12-1.16-1.41-46.75-3.41-55.9l7.66-2.4c1.7,3.88,5.2,47.85,8.37,41.27,1.7-3.4,7.09-14.55,8-18.28h0a14,14,0,0,1,12.55-10.83A6.84,6.84,0,0,1,407.32,275.63Z" fill="#f9b499"/><path d="M371.7,263.29c-6.39,1.41-12.44-3.58-12.44-3.58l7.85-14.8L373.73,257Z" fill="#f9b499"/><polygon points="367.15 244.91 359.29 259.71 351.09 250.73 354.94 238.68 367.15 244.91" fill="#f9b499"/><path d="M370,198.81a24,24,0,0,0-17.69,19.33c2.25-.43,3.25,1.16,5.47,1.7A19.91,19.91,0,0,1,366.6,211c1,2.74,2.06,5.5,3.09,8.27.56,1.5,1.34,4.91,1.34,4.91a51,51,0,0,1,6.53.66s2.85-11,.15-18.39c-1.14-3.13-2.54-6.46-5.4-8.16Z" fill="#2f2e41"/><rect x="385.8" y="342.37" width="3.08" height="10.36" transform="translate(-7.08 8.05) rotate(-1.18)" fill="#f28d00"/><rect x="354.65" y="343.03" width="3.08" height="10.36" transform="translate(-7.1 7.41) rotate(-1.18)" fill="#6c63ff"/><path d="M377.22,344a8.23,8.23,0,0,0-15.34,0l-.22.58H364l.12-.24a6.06,6.06,0,0,1,5.32-3.41,6.13,6.13,0,0,1,5.62,3.41,6,6,0,0,1,.6,2.49,6.63,6.63,0,0,1-.11,1.26,6.41,6.41,0,0,1-1.27,2.73,6.09,6.09,0,0,1-8.57.86,8.08,8.08,0,0,1-.6-.57L365,351h-2.64l.46.64a8.23,8.23,0,0,0,11.46,2,8,8,0,0,0,2.32-2.47,7.53,7.53,0,0,0,1.11-3.07,6,6,0,0,0,.1-1.4A7.65,7.65,0,0,0,377.22,344Z" fill="#fff"/><g opacity="0.7"><path d="M720.63,381.15a70,70,0,0,1-59.12,46.19,61.37,61.37,0,0,1-21.12-1.89,55.47,55.47,0,0,1-29.3-19.26l50.6-41.06-58.91-16c10.63-30.08,40.9-49.17,70.62-46h0a60.87,60.87,0,0,1,9.55,1.7C715.55,313.56,732.39,347.75,720.63,381.15Z" fill="#d1d3d4"/><path d="M732.05,381.15c-10.6,30-40.91,49.1-70.54,46a70,70,0,0,0,59.12-46c11.76-33.32-5.11-67.51-37.62-76.35a61.73,61.73,0,0,0-9.54-1.71,60.24,60.24,0,0,1,21,1.9C727,313.68,743.77,347.83,732.05,381.15Z" fill="#bcbec0"/></g><g opacity="0.7"><polygon points="647.91 367.5 597.29 408.56 585.87 408.46 636.47 367.4 577.55 351.38 588.97 351.46 647.91 367.5" fill="#bcbec0"/><path d="M636.4,367.4l-50.53,41c-11.93-15.08-15.66-36.25-8.32-57.08Z" fill="#d1d3d4"/></g><path d="M334.88,421.58H165.46a14.08,14.08,0,0,1-14.33-13.82,15,15,0,0,1,.08-1.77l5.57-64a17.35,17.35,0,0,1,17.05-15.6H343.27a14.06,14.06,0,0,1,14.31,13.81,13.48,13.48,0,0,1-.08,1.79l-5.61,64A17.35,17.35,0,0,1,334.88,421.58Z" fill="#d1d3d4"/><path d="M203,409.94H188.84a1.34,1.34,0,0,1-1.37-1.32,1.21,1.21,0,0,1,0-.19l5.91-67.6a1.7,1.7,0,0,1,1.71-1.51h14.09a1.36,1.36,0,0,1,1.39,1.33,1.09,1.09,0,0,1,0,.18l-5.91,67.6A1.7,1.7,0,0,1,203,409.94Z" fill="#fff"/><path d="M318.49,409.94h-14.1a1.36,1.36,0,0,1-1.39-1.33c0-.06,0-.12,0-.18l5.92-67.6a1.69,1.69,0,0,1,1.7-1.51h14.11a1.36,1.36,0,0,1,1.38,1.35c0,.05,0,.11,0,.16l-5.92,67.6A1.69,1.69,0,0,1,318.49,409.94Z" fill="#fff"/><path d="M262.72,409.94H248.63a1.36,1.36,0,0,1-1.39-1.33,1.09,1.09,0,0,1,0-.18l3.88-44.32a1.71,1.71,0,0,1,1.71-1.51h14.09a1.35,1.35,0,0,1,1.39,1.33,1.09,1.09,0,0,1,0,.18l-3.88,44.32A1.7,1.7,0,0,1,262.72,409.94Z" fill="#fff"/><path d="M233.09,409.94H219a1.36,1.36,0,0,1-1.39-1.33,1.09,1.09,0,0,1,0-.18l2.9-32.95a1.7,1.7,0,0,1,1.7-1.52h14.1a1.38,1.38,0,0,1,1.39,1.34c0,.06,0,.12,0,.18l-2.88,32.95A1.7,1.7,0,0,1,233.09,409.94Z" fill="#fff"/><path d="M290.61,409.94h-14.1a1.36,1.36,0,0,1-1.39-1.33,1.09,1.09,0,0,1,0-.18l.46-5.3a1.7,1.7,0,0,1,1.71-1.52h14.12a1.35,1.35,0,0,1,1.39,1.34,1.09,1.09,0,0,1,0,.18l-.47,5.3A1.7,1.7,0,0,1,290.61,409.94Z" fill="#fff"/></svg>