<svg xmlns="http://www.w3.org/2000/svg" data-name="Layer 1" width="200" height="162.099" viewBox="0 0 200 162.099"><path fill="#3f3d56" d="M199.903 162.099h-65.885v-.538H200z"/><path fill="#e6e6e6" d="M3.483 1.742a1.74 1.74 0 0 1-1.741 1.741A1.74 1.74 0 0 1 0 1.742a1.742 1.742 0 0 1 3.483 0m8.816 0a1.74 1.74 0 0 1-1.741 1.741 1.74 1.74 0 0 1-1.742-1.741 1.742 1.742 0 0 1 3.483 0m8.817 0a1.74 1.74 0 0 1-1.742 1.741 1.74 1.74 0 0 1-1.741-1.741 1.742 1.742 0 0 1 3.483 0m8.816 0a1.74 1.74 0 0 1-1.741 1.741 1.74 1.74 0 0 1-1.742-1.741 1.742 1.742 0 0 1 3.483 0m8.816 0a1.74 1.74 0 0 1-1.741 1.741 1.74 1.74 0 0 1-1.742-1.741 1.742 1.742 0 0 1 3.483 0m8.817 0a1.74 1.74 0 0 1-1.742 1.741 1.74 1.74 0 0 1-1.741-1.741 1.742 1.742 0 0 1 3.483 0m8.816 0a1.74 1.74 0 0 1-1.741 1.741 1.74 1.74 0 0 1-1.742-1.741 1.742 1.742 0 0 1 3.483 0m8.816 0a1.74 1.74 0 0 1-1.741 1.741 1.74 1.74 0 0 1-1.742-1.741 1.742 1.742 0 0 1 3.483 0m8.817 0a1.74 1.74 0 0 1-1.742 1.741 1.74 1.74 0 0 1-1.741-1.741 1.742 1.742 0 0 1 3.483 0m8.816 0a1.74 1.74 0 0 1-1.742 1.741 1.74 1.74 0 0 1-1.741-1.741 1.742 1.742 0 0 1 3.483 0M3.483 10.669a1.74 1.74 0 0 1-1.741 1.741A1.74 1.74 0 0 1 0 10.669a1.742 1.742 0 0 1 3.483 0m8.816 0a1.74 1.74 0 0 1-1.741 1.741 1.74 1.74 0 0 1-1.742-1.741 1.742 1.742 0 0 1 3.483 0m8.817 0a1.74 1.74 0 0 1-1.742 1.741 1.74 1.74 0 0 1-1.741-1.741 1.742 1.742 0 0 1 3.483 0"/><path fill="#6c63ff" d="M29.932 10.669a1.74 1.74 0 0 1-1.741 1.741 1.74 1.74 0 0 1-1.742-1.741 1.742 1.742 0 0 1 3.483 0"/><path fill="#e6e6e6" d="M38.748 10.669a1.74 1.74 0 0 1-1.741 1.741 1.74 1.74 0 0 1-1.742-1.741 1.742 1.742 0 0 1 3.483 0m8.817 0a1.74 1.74 0 0 1-1.742 1.741 1.74 1.74 0 0 1-1.741-1.741 1.742 1.742 0 0 1 3.483 0m8.816 0a1.74 1.74 0 0 1-1.741 1.741 1.74 1.74 0 0 1-1.742-1.741 1.742 1.742 0 0 1 3.483 0m8.816 0a1.74 1.74 0 0 1-1.741 1.741 1.74 1.74 0 0 1-1.742-1.741 1.742 1.742 0 0 1 3.483 0m8.817 0a1.74 1.74 0 0 1-1.742 1.741 1.74 1.74 0 0 1-1.741-1.741 1.742 1.742 0 0 1 3.483 0m8.816 0a1.74 1.74 0 0 1-1.742 1.741 1.74 1.74 0 0 1-1.741-1.741 1.742 1.742 0 0 1 3.483 0M3.483 19.596a1.74 1.74 0 0 1-1.741 1.741A1.74 1.74 0 0 1 0 19.596a1.742 1.742 0 0 1 3.483 0m8.816 0a1.74 1.74 0 0 1-1.741 1.741 1.74 1.74 0 0 1-1.742-1.741 1.742 1.742 0 0 1 3.483 0m8.817 0a1.74 1.74 0 0 1-1.742 1.741 1.74 1.74 0 0 1-1.741-1.741 1.742 1.742 0 0 1 3.483 0m8.816 0a1.74 1.74 0 0 1-1.741 1.741 1.74 1.74 0 0 1-1.742-1.741 1.742 1.742 0 0 1 3.483 0m8.816 0a1.74 1.74 0 0 1-1.741 1.741 1.74 1.74 0 0 1-1.742-1.741 1.742 1.742 0 0 1 3.483 0m8.817 0a1.74 1.74 0 0 1-1.742 1.741 1.74 1.74 0 0 1-1.741-1.741 1.742 1.742 0 0 1 3.483 0m8.816 0a1.74 1.74 0 0 1-1.741 1.741 1.74 1.74 0 0 1-1.742-1.741 1.742 1.742 0 0 1 3.483 0m8.816 0a1.74 1.74 0 0 1-1.741 1.741 1.74 1.74 0 0 1-1.742-1.741 1.742 1.742 0 0 1 3.483 0m8.817 0a1.74 1.74 0 0 1-1.742 1.741 1.74 1.74 0 0 1-1.741-1.741 1.742 1.742 0 0 1 3.483 0m8.816 0a1.74 1.74 0 0 1-1.742 1.741 1.74 1.74 0 0 1-1.741-1.741 1.742 1.742 0 0 1 3.483 0M3.483 28.523a1.74 1.74 0 0 1-1.741 1.741A1.74 1.74 0 0 1 0 28.523a1.742 1.742 0 0 1 3.483 0m8.816 0a1.74 1.74 0 0 1-1.741 1.741 1.74 1.74 0 0 1-1.742-1.741 1.742 1.742 0 0 1 3.483 0m8.817 0a1.74 1.74 0 0 1-1.742 1.741 1.74 1.74 0 0 1-1.741-1.741 1.742 1.742 0 0 1 3.483 0m8.816 0a1.74 1.74 0 0 1-1.741 1.741 1.74 1.74 0 0 1-1.742-1.741 1.742 1.742 0 0 1 3.483 0m8.816 0a1.74 1.74 0 0 1-1.741 1.741 1.74 1.74 0 0 1-1.742-1.741 1.742 1.742 0 0 1 3.483 0m8.817 0a1.74 1.74 0 0 1-1.742 1.741 1.74 1.74 0 0 1-1.741-1.741 1.742 1.742 0 0 1 3.483 0m8.816 0a1.74 1.74 0 0 1-1.741 1.741 1.74 1.74 0 0 1-1.742-1.741 1.742 1.742 0 0 1 3.483 0m8.816 0a1.74 1.74 0 0 1-1.741 1.741 1.74 1.74 0 0 1-1.742-1.741 1.742 1.742 0 0 1 3.483 0m8.817 0a1.74 1.74 0 0 1-1.742 1.741 1.74 1.74 0 0 1-1.741-1.741 1.742 1.742 0 0 1 3.483 0m8.816 0a1.74 1.74 0 0 1-1.742 1.741 1.74 1.74 0 0 1-1.741-1.741 1.742 1.742 0 0 1 3.483 0M3.483 37.45a1.74 1.74 0 0 1-1.741 1.741A1.74 1.74 0 0 1 0 37.45a1.742 1.742 0 0 1 3.483 0"/><path fill="#6c63ff" d="M12.299 37.45a1.74 1.74 0 0 1-1.741 1.741 1.74 1.74 0 0 1-1.742-1.741 1.742 1.742 0 0 1 3.483 0"/><path fill="#e6e6e6" d="M21.116 37.45a1.74 1.74 0 0 1-1.742 1.741 1.74 1.74 0 0 1-1.741-1.741 1.742 1.742 0 0 1 3.483 0m8.816 0a1.74 1.74 0 0 1-1.741 1.741 1.74 1.74 0 0 1-1.742-1.741 1.742 1.742 0 0 1 3.483 0m8.816 0a1.74 1.74 0 0 1-1.741 1.741 1.74 1.74 0 0 1-1.742-1.741 1.742 1.742 0 0 1 3.483 0m8.817 0a1.74 1.74 0 0 1-1.742 1.741 1.74 1.74 0 0 1-1.741-1.741 1.742 1.742 0 0 1 3.483 0m8.816 0a1.74 1.74 0 0 1-1.741 1.741 1.74 1.74 0 0 1-1.742-1.741 1.742 1.742 0 0 1 3.483 0m8.816 0a1.74 1.74 0 0 1-1.741 1.741 1.74 1.74 0 0 1-1.742-1.741 1.742 1.742 0 0 1 3.483 0m8.817 0a1.74 1.74 0 0 1-1.742 1.741 1.74 1.74 0 0 1-1.741-1.741 1.742 1.742 0 0 1 3.483 0m8.816 0a1.74 1.74 0 0 1-1.742 1.741 1.74 1.74 0 0 1-1.741-1.741 1.742 1.742 0 0 1 3.483 0M3.483 46.377a1.74 1.74 0 0 1-1.741 1.741A1.74 1.74 0 0 1 0 46.377a1.742 1.742 0 0 1 3.483 0m8.816 0a1.74 1.74 0 0 1-1.741 1.741 1.74 1.74 0 0 1-1.742-1.741 1.742 1.742 0 0 1 3.483 0m8.817 0a1.74 1.74 0 0 1-1.742 1.741 1.74 1.74 0 0 1-1.741-1.741 1.742 1.742 0 0 1 3.483 0m8.816 0a1.74 1.74 0 0 1-1.741 1.741 1.74 1.74 0 0 1-1.742-1.741 1.742 1.742 0 0 1 3.483 0m8.816 0a1.74 1.74 0 0 1-1.741 1.741 1.74 1.74 0 0 1-1.742-1.741 1.742 1.742 0 0 1 3.483 0m8.817 0a1.74 1.74 0 0 1-1.742 1.741 1.74 1.74 0 0 1-1.741-1.741 1.742 1.742 0 0 1 3.483 0m8.816 0a1.74 1.74 0 0 1-1.741 1.741 1.74 1.74 0 0 1-1.742-1.741 1.742 1.742 0 0 1 3.483 0m8.816 0a1.74 1.74 0 0 1-1.741 1.741 1.74 1.74 0 0 1-1.742-1.741 1.742 1.742 0 0 1 3.483 0m8.817 0a1.74 1.74 0 0 1-1.742 1.741 1.74 1.74 0 0 1-1.741-1.741 1.742 1.742 0 0 1 3.483 0m8.816 0a1.74 1.74 0 0 1-1.742 1.741 1.74 1.74 0 0 1-1.741-1.741 1.742 1.742 0 0 1 3.483 0M3.483 55.304a1.74 1.74 0 0 1-1.741 1.741A1.74 1.74 0 0 1 0 55.304a1.742 1.742 0 0 1 3.483 0m8.816 0a1.74 1.74 0 0 1-1.741 1.741 1.74 1.74 0 0 1-1.742-1.741 1.742 1.742 0 0 1 3.483 0"/><path fill="#6c63ff" d="M21.116 55.304a1.74 1.74 0 0 1-1.742 1.741 1.74 1.74 0 0 1-1.741-1.741 1.742 1.742 0 0 1 3.483 0"/><path fill="#e6e6e6" d="M29.932 55.304a1.74 1.74 0 0 1-1.741 1.741 1.74 1.74 0 0 1-1.742-1.741 1.742 1.742 0 0 1 3.483 0m8.816 0a1.74 1.74 0 0 1-1.741 1.741 1.74 1.74 0 0 1-1.742-1.741 1.742 1.742 0 0 1 3.483 0m8.817 0a1.74 1.74 0 0 1-1.742 1.741 1.74 1.74 0 0 1-1.741-1.741 1.742 1.742 0 0 1 3.483 0m8.816 0a1.74 1.74 0 0 1-1.741 1.741 1.74 1.74 0 0 1-1.742-1.741 1.742 1.742 0 0 1 3.483 0m8.816 0a1.74 1.74 0 0 1-1.741 1.741 1.74 1.74 0 0 1-1.742-1.741 1.742 1.742 0 0 1 3.483 0m8.817 0a1.74 1.74 0 0 1-1.742 1.741 1.74 1.74 0 0 1-1.741-1.741 1.742 1.742 0 0 1 3.483 0m8.816 0a1.74 1.74 0 0 1-1.742 1.741 1.74 1.74 0 0 1-1.741-1.741 1.742 1.742 0 0 1 3.483 0M3.483 64.231a1.74 1.74 0 0 1-1.741 1.741A1.74 1.74 0 0 1 0 64.231a1.742 1.742 0 0 1 3.483 0m8.816 0a1.74 1.74 0 0 1-1.741 1.741 1.74 1.74 0 0 1-1.742-1.741 1.742 1.742 0 0 1 3.483 0m8.817 0a1.74 1.74 0 0 1-1.742 1.741 1.74 1.74 0 0 1-1.741-1.741 1.742 1.742 0 0 1 3.483 0m8.816 0a1.74 1.74 0 0 1-1.741 1.741 1.74 1.74 0 0 1-1.742-1.741 1.742 1.742 0 0 1 3.483 0m8.816 0a1.74 1.74 0 0 1-1.741 1.741 1.74 1.74 0 0 1-1.742-1.741 1.742 1.742 0 0 1 3.483 0m8.817 0a1.74 1.74 0 0 1-1.742 1.741 1.74 1.74 0 0 1-1.741-1.741 1.742 1.742 0 0 1 3.483 0m8.816 0a1.74 1.74 0 0 1-1.741 1.741 1.74 1.74 0 0 1-1.742-1.741 1.742 1.742 0 0 1 3.483 0m8.816 0a1.74 1.74 0 0 1-1.741 1.741 1.74 1.74 0 0 1-1.742-1.741 1.742 1.742 0 0 1 3.483 0m8.817 0a1.74 1.74 0 0 1-1.742 1.741 1.74 1.74 0 0 1-1.741-1.741 1.742 1.742 0 0 1 3.483 0m8.816 0a1.74 1.74 0 0 1-1.742 1.741 1.74 1.74 0 0 1-1.741-1.741 1.742 1.742 0 0 1 3.483 0M3.483 73.158a1.74 1.74 0 0 1-1.741 1.741A1.74 1.74 0 0 1 0 73.158a1.742 1.742 0 0 1 3.483 0m8.816 0a1.74 1.74 0 0 1-1.741 1.741 1.74 1.74 0 0 1-1.742-1.741 1.742 1.742 0 0 1 3.483 0m8.817 0a1.74 1.74 0 0 1-1.742 1.741 1.74 1.74 0 0 1-1.741-1.741 1.742 1.742 0 0 1 3.483 0m8.816 0a1.74 1.74 0 0 1-1.741 1.741 1.74 1.74 0 0 1-1.742-1.741 1.742 1.742 0 0 1 3.483 0m8.816 0a1.74 1.74 0 0 1-1.741 1.741 1.74 1.74 0 0 1-1.742-1.741 1.742 1.742 0 0 1 3.483 0m8.817 0a1.74 1.74 0 0 1-1.742 1.741 1.74 1.74 0 0 1-1.741-1.741 1.742 1.742 0 0 1 3.483 0m8.816 0a1.74 1.74 0 0 1-1.741 1.741 1.74 1.74 0 0 1-1.742-1.741 1.742 1.742 0 0 1 3.483 0m8.816 0a1.74 1.74 0 0 1-1.741 1.741 1.74 1.74 0 0 1-1.742-1.741 1.742 1.742 0 0 1 3.483 0m8.817 0a1.74 1.74 0 0 1-1.742 1.741 1.74 1.74 0 0 1-1.741-1.741 1.742 1.742 0 0 1 3.483 0m8.816 0a1.74 1.74 0 0 1-1.742 1.741 1.74 1.74 0 0 1-1.741-1.741 1.742 1.742 0 0 1 3.483 0M3.483 82.085a1.74 1.74 0 0 1-1.741 1.741A1.74 1.74 0 0 1 0 82.085a1.742 1.742 0 0 1 3.483 0m8.816 0a1.74 1.74 0 0 1-1.741 1.741 1.74 1.74 0 0 1-1.742-1.741 1.742 1.742 0 0 1 3.483 0m8.817 0a1.74 1.74 0 0 1-1.742 1.741 1.74 1.74 0 0 1-1.741-1.741 1.742 1.742 0 0 1 3.483 0m8.816 0a1.74 1.74 0 0 1-1.741 1.741 1.74 1.74 0 0 1-1.742-1.741 1.742 1.742 0 0 1 3.483 0m8.816 0a1.74 1.74 0 0 1-1.741 1.741 1.74 1.74 0 0 1-1.742-1.741 1.742 1.742 0 0 1 3.483 0m8.817 0a1.74 1.74 0 0 1-1.742 1.741 1.74 1.74 0 0 1-1.741-1.741 1.742 1.742 0 0 1 3.483 0m8.816 0a1.74 1.74 0 0 1-1.741 1.741 1.74 1.74 0 0 1-1.742-1.741 1.742 1.742 0 0 1 3.483 0m8.816 0a1.74 1.74 0 0 1-1.741 1.741 1.74 1.74 0 0 1-1.742-1.741 1.742 1.742 0 0 1 3.483 0m8.817 0a1.74 1.74 0 0 1-1.742 1.741 1.74 1.74 0 0 1-1.741-1.741 1.742 1.742 0 0 1 3.483 0m8.816 0a1.74 1.74 0 0 1-1.742 1.741 1.74 1.74 0 0 1-1.741-1.741 1.742 1.742 0 0 1 3.483 0"/><path d="M102.354 15.566a2.2 2.2 0 0 1 2.202 2.202v88.079a2.2 2.2 0 0 1-2.202 2.202H39.158a2.2 2.2 0 0 1-2.202-2.202v-88.08a2.2 2.2 0 0 1 2.202-2.202z" fill="#e6e6e6"/><path d="M39.414 105.59h62.683V18.024H39.414Z" fill="#fff"/><path d="M88.151 31.878a.44.44 0 0 1 .44.44v.881a.44.44 0 0 1-.44.44H53.36a.44.44 0 0 1-.44-.44v-.881a.44.44 0 0 1 .44-.44zm0 4.184a.44.44 0 0 1 .44.44v.881a.44.44 0 0 1-.44.44H53.36a.44.44 0 0 1-.44-.44v-.881a.44.44 0 0 1 .44-.44z" fill="#e6e6e6"/><path d="M88.151 40.245a.44.44 0 0 1 .44.44v.881a.44.44 0 0 1-.44.44H53.36a.44.44 0 0 1-.44-.44v-.881a.44.44 0 0 1 .44-.44z" fill="#6c63ff"/><path d="M88.151 44.521a.44.44 0 0 1 .44.44v.881a.44.44 0 0 1-.44.44H53.36a.44.44 0 0 1-.44-.44v-.881a.44.44 0 0 1 .44-.44zm0 4.184a.44.44 0 0 1 .44.44v.881a.44.44 0 0 1-.44.44H53.36a.44.44 0 0 1-.44-.44v-.881a.44.44 0 0 1 .44-.44zm0 4.184a.44.44 0 0 1 .44.44v.881a.44.44 0 0 1-.44.44H53.36a.44.44 0 0 1-.44-.44v-.881a.44.44 0 0 1 .44-.44z" fill="#e6e6e6"/><path d="M53.582 66.962a.51.51 0 0 0-.511.511v23.752a.51.51 0 0 0 .511.511H87.87a.51.51 0 0 0 .511-.511V67.473a.51.51 0 0 0-.511-.511Z" fill="#6c63ff"/><path fill="#3f3d56" d="m70.87 41.202-.36-.096 7.855-29.546h45.559v.372H78.651z"/><path d="M127.647 15.655a3.909 3.909 0 1 1 3.909-3.909 3.914 3.914 0 0 1-3.909 3.909m0-7.445a3.537 3.537 0 1 0 3.536 3.537 3.54 3.54 0 0 0-3.536-3.537" fill="#3f3d56"/><path fill="#6c63ff" d="M129.136 11.746a1.49 1.49 0 0 1-1.489 1.489 1.49 1.49 0 0 1-1.489-1.489 1.489 1.489 0 0 1 2.978 0"/><path fill="#3f3d56" d="m69.652 91.244.36.096-7.911 29.532-45.559-.087.001-.372 45.273.087z"/><path d="M12.827 116.683a3.909 3.909 0 1 1-3.916 3.901 3.914 3.914 0 0 1 3.916-3.901m-.014 7.445a3.537 3.537 0 1 0-3.53-3.543 3.54 3.54 0 0 0 3.53 3.543" fill="#3f3d56"/><path fill="#6c63ff" d="M14.309 120.592a1.49 1.49 0 0 1-1.489 1.489 1.49 1.49 0 0 1-1.489-1.489 1.489 1.489 0 0 1 2.978 0"/><path fill="#ffb8b8" d="M157.678 153.528h-2.627l.469-14.543 6.943.375z"/><path d="M158.036 161.886c-.793.362-1.457-2.57-2.126-1.913-1.871 1.839-3.804 2.239-6.301 1.436l-.058-.01a1.17 1.17 0 0 1-.737-1.524 1.17 1.17 0 0 1 .811-.724l1.99-.497 3.124-5.494 3.189-.215a7.62 7.62 0 0 1 1.409 6.501c-.289 1.181-.736 2.183-1.301 2.441" fill="#2f2e41"/><path fill="#ffb8b8" d="m182.637 151.606-2.443.966-4.913-13.696 6.595-2.205z"/><path d="M186.044 159.246c-.604.628-2.3-1.854-2.681-.997-1.063 2.398-2.714 3.481-5.332 3.653l-.057.012a1.17 1.17 0 0 1-1.246-1.146 1.17 1.17 0 0 1 .488-.972l1.667-1.195.884-6.258 2.887-1.373a7.62 7.62 0 0 1 3.701 5.526c.165 1.205.118 2.301-.313 2.749" fill="#2f2e41"/><path d="m174.661 81.381-4.033 1.037a2.11 2.11 0 0 1-2.635-1.963 2.11 2.11 0 0 1 2.177-2.191l3.553.114 6.846-2.493-6.471-4.826.751-6.754 12.611 10.124a2.1 2.1 0 0 1 .778 1.484 2.095 2.095 0 0 1-1.536 2.17c-2.955 2.411-7.26 3.15-12.04 3.299m-2.628-31.901a6.57 6.57 0 0 1-6.568 6.568 6.57 6.57 0 0 1-6.567-6.568 6.568 6.568 0 0 1 13.135 0" fill="#ffb8b8"/><path d="m173.535 58.488-8.819 3.565a11.92 11.92 0 0 0-2.064-7.881l7.319-1.689c-.095 2.235 1.113 4.233 3.565 6.005" fill="#ffb8b8"/><path d="M175.131 73.782c-7.11.569-10.999-.375-16.983-3.847l2.252-5.254a4.35 4.35 0 0 1 1.79-4.161l2.338-1.656 7.131-2.064.32.016a3.9 3.9 0 0 1 3.697 3.599c1.549 4.629 1.559 9.104-.545 13.367" fill="#6c63ff"/><path d="m173.723 84.759-15.2-1.689-1.126-4.879c-2.496-3.767-1.406-7.218 1.501-10.509 5.3 3.401 10.219 4.871 17.264 3.753-1.873 4.556-3.604 9.034-2.439 13.323" fill="#2f2e41"/><path d="m185.545 141.618-12.103-.657-3.941-31.338-3.19 31.15-14.355-.657c4.379-20.478 7.421-39.919 6.568-57.797l15.012 1.314c5.088 5.365 7.614 13.928 9.101 24.113s2.686 21.993 2.909 33.871M174.954 41.244a2.257 2.257 0 0 1-2.258 2.258 2.257 2.257 0 0 1-2.257-2.258 2.257 2.257 0 0 1 4.515 0" fill="#2f2e41"/><path d="M170.37 40.691a2.256 2.256 0 0 1 2.256-2.11q-.07-.01-.14-.016a2.257 2.257 0 0 0-.29 4.506q.071.003.141.002a2.256 2.256 0 0 1-1.968-2.381" fill="#2f2e41"/><path d="M170.357 41.655c-2.013-1.67-7.788.452-8.161 1.575-2.723.371-4.784 1.96-4.784 4.784 1.619.663 3.46.581 5.45 0 3.172 2.585 3.39 5.835 1.46 9.568l2.373.047 2.942-4.3.141 4.362 5.441-.109v-6.25a13.06 13.06 0 0 0-1.395-5.987c-.848-1.647-2.164-2.609-3.467-3.69" fill="#2f2e41"/><path fill="#ffb8b8" d="M166.371 51.187a1.08 1.511 0 0 1-1.08 1.511 1.08 1.511 0 0 1-1.079-1.511 1.08 1.511 0 0 1 2.159 0"/><path d="M157.034 109.15a.38.38 0 0 1 .379.379v15.164a.38.38 0 0 1-.379.379h-10.88a.38.38 0 0 1-.379-.379v-15.164a.38.38 0 0 1 .379-.379z" fill="#6c63ff"/><path d="m158.523 103.525.367 6.369a2.766 2.766 0 0 1-3.163 2.895c-1.618-.238-1.655-1.82-1.258-3.407l1.511-6.045c3.707-13.292 4.708-26.339 4.521-39.063a3.195 3.195 0 0 1 3.281-3.25 3.193 3.193 0 0 1 3.098 3.304c-.525 14.941-2.704 28.51-8.357 39.196" fill="#ffb8b8"/></svg>